<?xml version="1.0" encoding="UTF-8" standalone="no"?><svg xmlns="http://www.w3.org/2000/svg" xmlns:xlink="http://www.w3.org/1999/xlink" clip-rule="evenodd" stroke-miterlimit="10" viewBox="0 0 1024 768"><desc>SVG generated by Keynote</desc><defs></defs><g transform="matrix(1.00, 0.00, -0.00, -1.00, 0.0, 768.0)"><path d="M 0.0 768.0 L 1024.0 768.0 L 1024.0 0.0 L 0.0 0.0 Z M 0.0 768.0 " fill="#D4EAFA"></path><text xml:space="preserve" font-family="AbadiMT-CondensedExtraBold,Abadi MT Condensed Extra Bold" font-weight="bold" font-size="94.0" fill="#5091CF" transform="matrix(1.00, 0.00, -0.00, -1.00, 382.5, 617.4)">T</text><text xml:space="preserve" font-family="AbadiMT-CondensedExtraBold,Abadi MT Condensed Extra Bold" font-weight="bold" font-size="94.0" fill="#5091CF" transform="matrix(1.00, 0.00, -0.00, -1.00, 423.7, 617.4)">u</text><text xml:space="preserve" font-family="AbadiMT-CondensedExtraBold,Abadi MT Condensed Extra Bold" font-weight="bold" font-size="94.0" fill="#5091CF" transform="matrix(1.00, 0.00, -0.00, -1.00, 468.7, 617.4)">f</text><text xml:space="preserve" font-family="AbadiMT-CondensedExtraBold,Abadi MT Condensed Extra Bold" font-weight="bold" font-size="94.0" fill="#5091CF" transform="matrix(1.00, 0.00, -0.00, -1.00, 496.1, 617.4)">t</text><text xml:space="preserve" font-family="AbadiMT-CondensedExtraBold,Abadi MT Condensed Extra Bold" font-weight="bold" font-size="94.0" fill="#5091CF" transform="matrix(1.00, 0.00, -0.00, -1.00, 526.4, 617.4)">s</text><text xml:space="preserve" font-family="AbadiMT-CondensedExtraBold,Abadi MT Condensed Extra Bold" font-weight="bold" font-size="94.0" fill="#5091CF" transform="matrix(1.00, 0.00, -0.00, -1.00, 564.6, 617.4)"> </text><text xml:space="preserve" font-family="AbadiMT-CondensedExtraBold,Abadi MT Condensed Extra Bold" font-weight="bold" font-size="94.0" fill="#5091CF" transform="matrix(1.00, 0.00, -0.00, -1.00, 588.7, 617.4)">2</text><text xml:space="preserve" font-family="AbadiMT-CondensedExtraBold,Abadi MT Condensed Extra Bold" font-weight="bold" font-size="94.0" fill="#5091CF" transform="matrix(1.00, 0.00, -0.00, -1.00, 636.7, 617.4)">0</text><text xml:space="preserve" font-family="AbadiMT-CondensedExtraBold,Abadi MT Condensed Extra Bold" font-weight="bold" font-size="94.0" fill="#5091CF" transform="matrix(1.00, 0.00, -0.00, -1.00, 684.6, 617.4)">1</text><text xml:space="preserve" font-family="AbadiMT-CondensedExtraBold,Abadi MT Condensed Extra Bold" font-weight="bold" font-size="94.0" fill="#5091CF" transform="matrix(1.00, 0.00, -0.00, -1.00, 732.6, 617.4)">4</text><image xlink:href="670BE5C0604BFF73EAEA08F7859A165C.png" width="1898.00" height="1072.00" transform="matrix(0.34, 0.00, -0.00, -0.34, 171.1, 491.1)"></image><path d="M 0.0 0.0 L 641.6 0.0 L 641.6 362.4 L 0.0 362.4 Z M 0.0 0.0 " fill="none" stroke="#185B93" stroke-width="2.00" transform="matrix(1.00, 0.00, 0.00, -1.00, 171.1, 491.1)"></path><image xlink:href="B6E721E2038C90A50B1F3A6242114810.png" width="381.00" height="49.00" transform="matrix(1.00, 0.00, -0.00, -1.00, 438.0, 562.3)" opacity="0.50"></image><path d="M 442.0 560.0 L 815.0 560.0 L 815.0 519.0 L 442.0 519.0 Z M 442.0 560.3 " fill="#FEFFFE"></path><path d="M -0.0 0.3 L 373.0 0.3 L 373.0 41.3 L -0.0 41.3 Z M 0.0 0.0 " fill="none" stroke="#185B93" stroke-width="2.00" transform="matrix(1.00, 0.00, 0.00, -1.00, 442.0, 560.3)"></path><g><clipPath id="clip0x6080016ad980"><path d="M 441.0 519.3 L 816.0 519.3 L 816.0 560.3 L 441.0 560.3 Z M 441.0 519.3 "></path></clipPath><g clip-path="url(#clip0x6080016ad980)"><text xml:space="preserve" font-family="Helvetica-Bold,Helvetica" font-weight="bold" font-size="24.0" fill="#DCDDE0" transform="matrix(1.00, 0.00, -0.00, -1.00, 447.0, 530.8)">W</text><text xml:space="preserve" font-family="Helvetica-Bold,Helvetica" font-weight="bold" font-size="24.0" fill="#DCDDE0" transform="matrix(1.00, 0.00, -0.00, -1.00, 469.7, 530.8)">h</text><text xml:space="preserve" font-family="Helvetica-Bold,Helvetica" font-weight="bold" font-size="24.0" fill="#DCDDE0" transform="matrix(1.00, 0.00, -0.00, -1.00, 484.3, 530.8)">e</text><text xml:space="preserve" font-family="Helvetica-Bold,Helvetica" font-weight="bold" font-size="24.0" fill="#DCDDE0" transform="matrix(1.00, 0.00, -0.00, -1.00, 497.7, 530.8)">r</text><text xml:space="preserve" font-family="Helvetica-Bold,Helvetica" font-weight="bold" font-size="24.0" fill="#DCDDE0" transform="matrix(1.00, 0.00, -0.00, -1.00, 507.0, 530.8)">e</text><text xml:space="preserve" font-family="Helvetica-Bold,Helvetica" font-weight="bold" font-size="24.0" fill="#DCDDE0" transform="matrix(1.00, 0.00, -0.00, -1.00, 520.4, 530.8)"> </text><text xml:space="preserve" font-family="Helvetica-Bold,Helvetica" font-weight="bold" font-size="24.0" fill="#DCDDE0" transform="matrix(1.00, 0.00, -0.00, -1.00, 527.1, 530.8)">w</text><text xml:space="preserve" font-family="Helvetica-Bold,Helvetica" font-weight="bold" font-size="24.0" fill="#DCDDE0" transform="matrix(1.00, 0.00, -0.00, -1.00, 545.7, 530.8)">i</text><text xml:space="preserve" font-family="Helvetica-Bold,Helvetica" font-weight="bold" font-size="24.0" fill="#DCDDE0" transform="matrix(1.00, 0.00, -0.00, -1.00, 552.4, 530.8)">l</text><text xml:space="preserve" font-family="Helvetica-Bold,Helvetica" font-weight="bold" font-size="24.0" fill="#DCDDE0" transform="matrix(1.00, 0.00, -0.00, -1.00, 559.0, 530.8)">l</text><text xml:space="preserve" font-family="Helvetica-Bold,Helvetica" font-weight="bold" font-size="24.0" fill="#DCDDE0" transform="matrix(1.00, 0.00, -0.00, -1.00, 565.7, 530.8)"> </text><text xml:space="preserve" font-family="Helvetica-Bold,Helvetica" font-weight="bold" font-size="24.0" fill="#DCDDE0" transform="matrix(1.00, 0.00, -0.00, -1.00, 572.4, 530.8)">y</text><text xml:space="preserve" font-family="Helvetica-Bold,Helvetica" font-weight="bold" font-size="24.0" fill="#DCDDE0" transform="matrix(1.00, 0.00, -0.00, -1.00, 585.7, 530.8)">o</text><text xml:space="preserve" font-family="Helvetica-Bold,Helvetica" font-weight="bold" font-size="24.0" fill="#DCDDE0" transform="matrix(1.00, 0.00, -0.00, -1.00, 600.4, 530.8)">u</text><text xml:space="preserve" font-family="Helvetica-Bold,Helvetica" font-weight="bold" font-size="24.0" fill="#DCDDE0" transform="matrix(1.00, 0.00, -0.00, -1.00, 615.0, 530.8)"> </text><text xml:space="preserve" font-family="Helvetica-Bold,Helvetica" font-weight="bold" font-size="24.0" fill="#DCDDE0" transform="matrix(1.00, 0.00, -0.00, -1.00, 621.7, 530.8)">b</text><text xml:space="preserve" font-family="Helvetica-Bold,Helvetica" font-weight="bold" font-size="24.0" fill="#DCDDE0" transform="matrix(1.00, 0.00, -0.00, -1.00, 636.3, 530.8)">e</text><text xml:space="preserve" font-family="Helvetica-Bold,Helvetica" font-weight="bold" font-size="24.0" fill="#DCDDE0" transform="matrix(1.00, 0.00, -0.00, -1.00, 649.7, 530.8)"> </text><text xml:space="preserve" font-family="Helvetica-Bold,Helvetica" font-weight="bold" font-size="24.0" fill="#DCDDE0" transform="matrix(1.00, 0.00, -0.00, -1.00, 656.4, 530.8)">n</text><text xml:space="preserve" font-family="Helvetica-Bold,Helvetica" font-weight="bold" font-size="24.0" fill="#DCDDE0" transform="matrix(1.00, 0.00, -0.00, -1.00, 671.0, 530.8)">e</text><text xml:space="preserve" font-family="Helvetica-Bold,Helvetica" font-weight="bold" font-size="24.0" fill="#DCDDE0" transform="matrix(1.00, 0.00, -0.00, -1.00, 684.4, 530.8)">x</text><text xml:space="preserve" font-family="Helvetica-Bold,Helvetica" font-weight="bold" font-size="24.0" fill="#DCDDE0" transform="matrix(1.00, 0.00, -0.00, -1.00, 697.7, 530.8)">t</text><text xml:space="preserve" font-family="Helvetica-Bold,Helvetica" font-weight="bold" font-size="24.0" fill="#DCDDE0" transform="matrix(1.00, 0.00, -0.00, -1.00, 705.7, 530.8)"> </text><text xml:space="preserve" font-family="Helvetica-Bold,Helvetica" font-weight="bold" font-size="24.0" fill="#DCDDE0" transform="matrix(1.00, 0.00, -0.00, -1.00, 712.4, 530.8)">y</text><text xml:space="preserve" font-family="Helvetica-Bold,Helvetica" font-weight="bold" font-size="24.0" fill="#DCDDE0" transform="matrix(1.00, 0.00, -0.00, -1.00, 725.7, 530.8)">e</text><text xml:space="preserve" font-family="Helvetica-Bold,Helvetica" font-weight="bold" font-size="24.0" fill="#DCDDE0" transform="matrix(1.00, 0.00, -0.00, -1.00, 739.1, 530.8)">a</text><text xml:space="preserve" font-family="Helvetica-Bold,Helvetica" font-weight="bold" font-size="24.0" fill="#DCDDE0" transform="matrix(1.00, 0.00, -0.00, -1.00, 752.4, 530.8)">r</text><text xml:space="preserve" font-family="Helvetica-Bold,Helvetica" font-weight="bold" font-size="24.0" fill="#DCDDE0" transform="matrix(1.00, 0.00, -0.00, -1.00, 761.8, 530.8)">?</text></g></g><g><clipPath id="clip0x6080016ad5c0"><path d="M 195.0 749.0 L 348.0 749.0 L 348.0 582.0 L 195.0 582.0 Z M 194.9 749.4 "></path></clipPath><g clip-path="url(#clip0x6080016ad5c0)"><g><clipPath id="clip0x6080016a15c0"><path d="M 305.4 749.4 C 303.6 749.2 302.6 748.2 301.2 745.8 C 299.9 743.6 297.7 741.2 296.3 740.5 C 286.9 735.4 288.0 714.5 298.0 708.6 C 301.8 706.4 301.9 706.1 299.6 704.5 C 296.4 702.2 289.3 702.2 285.6 704.5 C 280.2 708.0 272.0 707.2 264.2 702.5 C 261.2 700.6 259.4 700.3 257.7 701.2 C 256.4 701.9 251.3 702.9 246.3 703.4 C 234.1 704.6 224.2 701.2 207.6 690.1 C 196.4 682.7 194.9 681.3 194.9 677.9 C 194.9 675.3 195.9 673.4 198.1 672.0 C 202.6 669.0 207.1 661.6 210.5 651.4 C 212.6 644.9 215.5 640.0 221.2 633.2 C 230.5 622.0 235.1 618.8 240.6 619.5 C 244.0 620.1 245.4 619.2 251.4 612.6 C 258.8 604.7 266.5 592.4 266.5 588.7 C 266.5 587.5 267.0 585.4 267.7 584.1 C 268.5 582.7 270.0 581.9 271.4 582.3 C 274.9 583.2 284.9 591.6 291.6 599.2 C 298.1 606.4 306.8 622.2 306.8 626.6 C 306.8 628.3 309.0 631.2 312.3 633.9 L 317.9 638.5 L 324.9 635.4 C 337.7 629.7 348.9 632.2 348.0 640.5 C 347.5 645.3 345.5 649.4 342.7 651.8 C 341.1 653.1 340.2 653.0 337.8 651.3 C 335.0 649.4 334.6 649.5 330.6 653.4 C 325.6 658.3 325.4 659.4 328.9 665.6 C 332.0 671.1 332.9 683.8 330.8 691.6 C 328.7 699.4 323.6 709.4 321.2 710.2 C 320.1 710.6 318.3 711.7 317.2 712.7 C 316.1 713.6 313.1 716.1 310.5 718.3 C 303.8 723.9 304.6 727.0 313.1 729.5 C 319.0 731.1 319.9 734.5 315.4 738.0 C 313.4 739.6 312.0 742.2 311.7 744.8 C 311.4 748.4 310.8 749.0 307.4 749.4 C 306.6 749.4 306.0 749.5 305.4 749.4 Z M 305.4 749.4 "></path></clipPath><g clip-path="url(#clip0x6080016a15c0)"><image xlink:href="DA1AEA3EA92427D30ACBE642F38A2FEF.jpeg" width="160.00" height="176.00" transform="matrix(1.00, 0.00, -0.00, -1.00, 191.0, 753.5)"></image></g></g></g></g><image xlink:href="4B21BE15BBCA3B3AEDD3BDF9C79C530C.png" width="264.00" height="49.00" transform="matrix(1.00, 0.00, -0.00, -1.00, 167.6, 562.3)" opacity="0.50"></image><path d="M 172.0 560.0 L 427.0 560.0 L 427.0 519.0 L 172.0 519.0 Z M 171.6 560.3 " fill="#FEFFFE"></path><path d="M 0.4 0.3 L 255.4 0.3 L 255.4 41.3 L 0.4 41.3 Z M 0.0 0.0 " fill="none" stroke="#185B93" stroke-width="2.00" transform="matrix(1.00, 0.00, 0.00, -1.00, 171.6, 560.3)"></path><g><clipPath id="clip0x6080010b2840"><path d="M 170.6 519.3 L 428.1 519.3 L 428.1 560.3 L 170.6 560.3 Z M 170.6 519.3 "></path></clipPath><g clip-path="url(#clip0x6080010b2840)"><text xml:space="preserve" font-family="Helvetica-Bold,Helvetica" font-weight="bold" font-size="24.0" fill="#DCDDE0" transform="matrix(1.00, 0.00, -0.00, -1.00, 176.6, 530.8)">N</text><text xml:space="preserve" font-family="Helvetica-Bold,Helvetica" font-weight="bold" font-size="24.0" fill="#DCDDE0" transform="matrix(1.00, 0.00, -0.00, -1.00, 193.9, 530.8)">a</text><text xml:space="preserve" font-family="Helvetica-Bold,Helvetica" font-weight="bold" font-size="24.0" fill="#DCDDE0" transform="matrix(1.00, 0.00, -0.00, -1.00, 207.3, 530.8)">m</text><text xml:space="preserve" font-family="Helvetica-Bold,Helvetica" font-weight="bold" font-size="24.0" fill="#DCDDE0" transform="matrix(1.00, 0.00, -0.00, -1.00, 228.6, 530.8)">e</text><text xml:space="preserve" font-family="Helvetica-Bold,Helvetica" font-weight="bold" font-size="24.0" fill="#DCDDE0" transform="matrix(1.00, 0.00, -0.00, -1.00, 242.0, 530.8)">?</text></g></g></g></svg>