<?xml version="1.0" encoding="UTF-8" standalone="no"?><svg xmlns="http://www.w3.org/2000/svg" xmlns:xlink="http://www.w3.org/1999/xlink" clip-rule="evenodd" stroke-miterlimit="10" viewBox="0 0 1024 768"><desc>SVG generated by Keynote</desc><defs></defs><g transform="matrix(1.00, 0.00, -0.00, -1.00, 0.0, 768.0)"><path d="M 0.0 768.0 L 1024.0 768.0 L 1024.0 0.0 L 0.0 0.0 Z M 0.0 768.0 " fill="#D4EAFA"></path><text xml:space="preserve" font-family="AbadiMT-CondensedExtraBold,Abadi MT Condensed Extra Bold" font-weight="bold" font-size="94.0" fill="#5091CF" transform="matrix(1.00, 0.00, -0.00, -1.00, 382.5, 617.4)">T</text><text xml:space="preserve" font-family="AbadiMT-CondensedExtraBold,Abadi MT Condensed Extra Bold" font-weight="bold" font-size="94.0" fill="#5091CF" transform="matrix(1.00, 0.00, -0.00, -1.00, 423.7, 617.4)">u</text><text xml:space="preserve" font-family="AbadiMT-CondensedExtraBold,Abadi MT Condensed Extra Bold" font-weight="bold" font-size="94.0" fill="#5091CF" transform="matrix(1.00, 0.00, -0.00, -1.00, 468.7, 617.4)">f</text><text xml:space="preserve" font-family="AbadiMT-CondensedExtraBold,Abadi MT Condensed Extra Bold" font-weight="bold" font-size="94.0" fill="#5091CF" transform="matrix(1.00, 0.00, -0.00, -1.00, 496.1, 617.4)">t</text><text xml:space="preserve" font-family="AbadiMT-CondensedExtraBold,Abadi MT Condensed Extra Bold" font-weight="bold" font-size="94.0" fill="#5091CF" transform="matrix(1.00, 0.00, -0.00, -1.00, 526.4, 617.4)">s</text><text xml:space="preserve" font-family="AbadiMT-CondensedExtraBold,Abadi MT Condensed Extra Bold" font-weight="bold" font-size="94.0" fill="#5091CF" transform="matrix(1.00, 0.00, -0.00, -1.00, 564.6, 617.4)"> </text><text xml:space="preserve" font-family="AbadiMT-CondensedExtraBold,Abadi MT Condensed Extra Bold" font-weight="bold" font-size="94.0" fill="#5091CF" transform="matrix(1.00, 0.00, -0.00, -1.00, 588.7, 617.4)">2</text><text xml:space="preserve" font-family="AbadiMT-CondensedExtraBold,Abadi MT Condensed Extra Bold" font-weight="bold" font-size="94.0" fill="#5091CF" transform="matrix(1.00, 0.00, -0.00, -1.00, 636.7, 617.4)">0</text><text xml:space="preserve" font-family="AbadiMT-CondensedExtraBold,Abadi MT Condensed Extra Bold" font-weight="bold" font-size="94.0" fill="#5091CF" transform="matrix(1.00, 0.00, -0.00, -1.00, 684.6, 617.4)">1</text><text xml:space="preserve" font-family="AbadiMT-CondensedExtraBold,Abadi MT Condensed Extra Bold" font-weight="bold" font-size="94.0" fill="#5091CF" transform="matrix(1.00, 0.00, -0.00, -1.00, 732.6, 617.4)">4</text><image xlink:href="../../0099E750-43F4-4A1E-80C1-2076B752852F/assets/670BE5C0604BFF73EAEA08F7859A165C.png" width="1898.00" height="1072.00" transform="matrix(0.34, 0.00, -0.00, -0.34, 170.8, 491.1)"></image><path d="M 0.0 0.0 L 641.6 0.0 L 641.6 362.4 L 0.0 362.4 Z M 0.0 0.0 " fill="none" stroke="#185B93" stroke-width="2.00" transform="matrix(1.00, 0.00, 0.00, -1.00, 170.8, 491.1)"></path><g><clipPath id="clip0x6080010b7640"><path d="M 195.0 749.0 L 348.0 749.0 L 348.0 582.0 L 195.0 582.0 Z M 194.9 749.4 "></path></clipPath><g clip-path="url(#clip0x6080010b7640)"><g><clipPath id="clip0x608000eb1640"><path d="M 305.4 749.4 C 303.6 749.2 302.6 748.2 301.2 745.8 C 299.9 743.6 297.7 741.2 296.3 740.5 C 286.9 735.4 288.0 714.5 298.0 708.6 C 301.8 706.4 301.9 706.1 299.6 704.5 C 296.4 702.2 289.3 702.2 285.6 704.5 C 280.2 708.0 272.0 707.2 264.2 702.5 C 261.2 700.6 259.4 700.3 257.7 701.2 C 256.4 701.9 251.3 702.9 246.3 703.4 C 234.1 704.6 224.2 701.2 207.6 690.1 C 196.4 682.7 194.9 681.3 194.9 677.9 C 194.9 675.3 195.9 673.4 198.1 672.0 C 202.6 669.0 207.1 661.6 210.5 651.4 C 212.6 644.9 215.5 640.0 221.2 633.2 C 230.5 622.0 235.1 618.8 240.6 619.5 C 244.0 620.1 245.4 619.2 251.4 612.6 C 258.8 604.7 266.5 592.4 266.5 588.7 C 266.5 587.5 267.0 585.4 267.7 584.1 C 268.5 582.7 270.0 581.9 271.4 582.3 C 274.9 583.2 284.9 591.6 291.6 599.2 C 298.1 606.4 306.8 622.2 306.8 626.6 C 306.8 628.3 309.0 631.2 312.3 633.9 L 317.9 638.5 L 324.9 635.4 C 337.7 629.7 348.9 632.2 348.0 640.5 C 347.5 645.3 345.5 649.4 342.7 651.8 C 341.1 653.1 340.2 653.0 337.8 651.3 C 335.0 649.4 334.6 649.5 330.6 653.4 C 325.6 658.3 325.4 659.4 328.9 665.6 C 332.0 671.1 332.9 683.8 330.8 691.6 C 328.7 699.4 323.6 709.4 321.2 710.2 C 320.1 710.6 318.3 711.7 317.2 712.7 C 316.1 713.6 313.1 716.1 310.5 718.3 C 303.8 723.9 304.6 727.0 313.1 729.5 C 319.0 731.1 319.9 734.5 315.4 738.0 C 313.4 739.6 312.0 742.2 311.7 744.8 C 311.4 748.4 310.8 749.0 307.4 749.4 C 306.6 749.4 306.0 749.5 305.4 749.4 Z M 305.4 749.4 "></path></clipPath><g clip-path="url(#clip0x608000eb1640)"><image xlink:href="../../0099E750-43F4-4A1E-80C1-2076B752852F/assets/DA1AEA3EA92427D30ACBE642F38A2FEF.jpeg" width="160.00" height="176.00" transform="matrix(1.00, 0.00, -0.00, -1.00, 191.0, 753.5)"></image></g></g></g></g><path d="M -0.1 0.1 L 24.9 0.1 " fill="none" stroke="#000000" stroke-width="2.00" transform="matrix(0.00, 1.00, 1.00, 0.00, 341.9, 527.1)"></path><image xlink:href="84152754C109CC99C444389ADB821BF7.png" width="1896.00" height="1092.00" transform="matrix(0.34, 0.00, -0.00, -0.33, 172.3, 490.9)"></image><g><clipPath id="clip0x6080016ab820"><path d="M 475.3 298.3 L 451.6 298.3 L 451.6 321.4 L 475.3 321.4 Z M 475.3 298.3 "></path></clipPath><g clip-path="url(#clip0x6080016ab820)"><image xlink:href="1015932117C5EA938A0F97EF41DDF192.png" width="22.00" height="21.00" transform="matrix(-0.98, 0.00, 0.00, 1.01, 474.3, 299.3)" opacity="0.79"></image></g></g><g><clipPath id="clip0x6000018abc40"><path d="M 475.3 298.3 L 451.6 298.3 L 451.6 321.4 L 475.3 321.4 Z M 475.3 298.3 "></path></clipPath><g clip-path="url(#clip0x6000018abc40)"><g><clipPath id="clip0x6000016a42c0"><path d="M 461.9 302.5 L 453.1 320.0 L 470.7 320.0 Z M 461.9 302.5 "></path></clipPath><g clip-path="url(#clip0x6000016a42c0)"><image xlink:href="118853971987BBA957EDC916CEAAFC6C.png" width="600.00" height="600.00" transform="matrix(-0.50, 0.00, 0.00, 0.50, 470.7, 302.5)"></image></g></g></g></g><g><clipPath id="clip0x6080012be0c0"><path d="M 452.0 333.0 L 473.0 333.0 L 473.0 314.0 L 452.0 314.0 Z M 452.2 333.3 "></path></clipPath><g clip-path="url(#clip0x6080012be0c0)"><g><clipPath id="clip0x6080014b99e0"><path d="M 461.6 333.3 C 460.3 333.2 459.7 333.2 459.7 333.2 C 459.8 333.1 459.7 333.0 459.3 332.9 C 459.1 332.9 459.0 332.9 458.9 332.9 C 458.8 333.0 458.6 332.9 458.6 332.8 C 458.6 332.7 458.6 332.7 458.5 332.6 C 458.4 332.6 458.0 332.4 457.7 332.3 C 457.3 332.1 457.1 332.0 457.0 332.1 C 457.0 332.2 457.0 332.1 457.0 332.1 C 457.0 331.9 456.7 331.7 456.6 331.8 C 456.5 331.9 456.4 331.8 456.2 331.6 C 456.0 331.4 455.9 331.2 455.9 331.2 C 455.9 331.1 455.7 331.0 455.5 331.0 C 455.3 331.0 455.3 331.0 455.4 330.9 C 455.5 330.8 455.5 330.8 455.4 330.7 C 455.3 330.7 455.3 330.7 455.1 330.7 C 455.1 330.8 455.0 330.8 455.0 330.7 C 455.1 330.7 454.9 330.4 454.8 330.5 C 454.8 330.5 454.8 330.5 454.8 330.4 C 454.8 330.4 454.7 330.3 454.7 330.3 C 454.5 330.2 454.5 330.2 454.5 330.0 C 454.6 329.9 454.5 329.8 454.2 329.5 C 454.0 329.3 453.8 329.2 453.7 329.2 C 453.7 329.2 453.7 329.1 453.8 329.1 C 453.9 329.0 453.9 329.0 453.7 328.8 C 453.7 328.6 453.6 328.5 453.5 328.6 C 453.5 328.6 453.5 328.6 453.5 328.5 C 453.6 328.4 453.3 327.9 453.2 327.9 C 453.2 327.9 453.2 327.9 453.2 327.9 C 453.2 327.8 453.0 327.4 452.9 327.4 C 452.9 327.4 452.9 327.4 452.9 327.3 C 452.9 327.3 452.8 326.9 452.7 326.6 C 452.5 326.0 452.5 326.0 452.4 326.0 L 452.0 326.0 L 452.0 323.6 L 452.0 321.0 L 452.4 321.0 C 452.6 320.9 452.7 320.8 452.6 320.6 C 452.5 320.5 452.6 320.5 452.8 320.3 C 452.9 320.2 453.0 320.1 452.9 320.0 C 452.9 319.9 452.9 319.9 452.9 319.9 C 453.1 319.9 453.2 319.5 453.2 319.3 C 453.1 319.2 453.2 319.2 453.2 319.2 C 453.4 319.2 453.5 318.9 453.5 318.8 C 453.5 318.7 453.5 318.7 453.5 318.7 C 453.6 318.8 453.9 318.3 453.8 318.2 C 453.7 318.1 453.8 318.1 453.8 318.1 C 453.9 318.1 453.9 318.0 453.9 317.9 C 453.9 317.9 453.9 317.9 454.0 317.9 C 454.1 318.0 454.1 317.9 454.2 317.8 C 454.3 317.7 454.3 317.7 454.3 317.7 C 454.3 317.7 454.3 317.6 454.4 317.5 C 454.5 317.4 454.6 317.4 454.5 317.3 C 454.5 317.3 454.5 317.2 454.5 317.1 C 454.5 317.1 454.6 317.1 454.6 317.1 C 454.6 317.2 454.8 317.0 454.8 316.9 C 454.8 316.7 454.9 316.7 454.9 316.8 C 455.0 316.9 455.0 316.9 455.1 316.8 C 455.1 316.8 455.1 316.8 455.1 316.7 C 455.1 316.7 455.2 316.7 455.2 316.7 C 455.2 316.7 455.2 316.7 455.2 316.6 C 455.1 316.6 455.1 316.6 455.1 316.7 C 455.0 316.5 455.1 316.5 455.2 316.6 C 455.3 316.6 455.3 316.6 455.3 316.5 C 455.4 316.4 455.4 316.4 455.4 316.5 C 455.4 316.5 455.5 316.5 455.5 316.4 C 455.6 316.4 455.6 316.3 455.6 316.3 C 455.5 316.2 455.6 316.2 455.6 316.3 C 455.6 316.3 455.7 316.2 455.8 316.1 C 455.9 316.0 456.0 315.9 456.1 315.9 C 456.2 315.9 456.2 315.8 456.2 315.8 C 456.2 315.7 456.2 315.7 456.2 315.7 C 456.3 315.8 456.3 315.7 456.4 315.7 C 456.5 315.7 456.5 315.6 456.4 315.5 C 456.4 315.4 456.4 315.4 456.6 315.5 C 456.7 315.5 457.1 315.4 457.0 315.3 C 457.0 315.2 457.0 315.2 457.0 315.2 C 457.1 315.2 457.3 315.2 457.6 315.0 C 457.8 314.9 458.3 314.7 458.7 314.6 C 459.1 314.4 459.4 314.3 459.4 314.3 C 459.4 314.2 459.4 314.2 459.4 314.1 C 459.5 314.1 459.5 314.1 459.6 314.1 C 459.7 314.2 459.7 314.2 460.3 314.1 C 460.6 314.1 461.0 314.0 461.1 314.0 C 461.3 314.0 461.4 314.0 461.4 313.9 C 461.4 313.9 461.4 313.9 461.4 313.9 C 461.5 313.9 461.8 314.0 462.2 314.0 C 462.6 314.0 463.2 314.1 463.4 314.1 C 463.7 314.1 463.9 314.2 464.0 314.1 C 464.0 314.1 464.0 314.1 464.1 314.1 C 464.1 314.1 464.1 314.1 464.1 314.1 C 464.1 314.1 464.2 314.1 464.2 314.1 C 464.2 314.1 464.2 314.1 464.3 314.0 C 464.3 314.0 464.4 314.0 464.4 314.1 C 464.4 314.1 464.4 314.1 464.3 314.1 C 464.3 314.1 464.3 314.1 464.4 314.2 C 464.4 314.2 464.4 314.2 464.4 314.1 C 464.4 314.1 464.4 314.1 464.4 314.1 C 464.4 314.1 464.4 314.1 464.4 314.1 C 464.4 314.2 464.4 314.2 464.4 314.2 C 464.4 314.3 464.4 314.3 464.5 314.3 C 464.6 314.4 464.8 314.4 465.0 314.4 C 465.0 314.3 465.1 314.3 465.1 314.3 C 465.1 314.3 465.1 314.3 465.1 314.3 C 465.1 314.3 465.1 314.4 465.1 314.4 C 465.1 314.4 465.2 314.5 465.3 314.6 C 465.3 314.6 465.4 314.6 465.4 314.6 C 465.5 314.7 465.7 314.8 465.9 314.8 C 466.0 314.9 466.0 314.9 466.1 314.9 C 466.1 314.9 466.1 314.9 466.1 314.9 C 466.1 314.9 466.2 314.9 466.2 314.9 C 466.2 314.9 466.2 314.9 466.2 314.9 C 466.3 315.0 466.3 315.0 466.5 314.9 C 466.5 314.9 466.5 314.9 466.5 314.9 C 466.6 314.9 466.6 315.0 466.5 315.0 C 466.5 315.1 466.5 315.2 466.8 315.3 C 466.9 315.3 466.9 315.3 466.9 315.4 C 466.9 315.4 466.9 315.4 466.9 315.4 C 467.1 315.4 467.1 315.5 467.2 315.5 C 467.2 315.5 467.2 315.5 467.3 315.5 C 467.3 315.5 467.4 315.5 467.4 315.6 C 467.4 315.6 467.4 315.7 467.5 315.7 C 467.5 315.8 467.6 315.8 467.6 315.7 C 467.6 315.7 467.6 315.7 467.6 315.7 C 467.7 315.7 467.7 315.7 467.7 315.8 C 467.7 315.8 467.7 315.8 467.7 315.9 C 467.7 315.9 467.8 315.9 467.8 315.9 C 467.8 316.0 467.8 316.0 467.9 316.0 C 467.9 316.0 467.9 316.1 468.0 316.1 C 468.0 316.1 468.0 316.1 468.1 316.0 C 468.1 316.0 468.2 316.0 468.2 316.1 C 468.2 316.2 468.3 316.2 468.3 316.2 C 468.4 316.2 468.4 316.2 468.4 316.2 C 468.4 316.2 468.4 316.3 468.4 316.3 C 468.4 316.3 468.5 316.4 468.5 316.4 C 468.6 316.5 468.6 316.5 468.6 316.5 C 468.7 316.5 468.7 316.5 468.7 316.6 C 468.7 316.6 468.8 316.6 468.8 316.6 C 468.8 316.7 468.8 316.7 468.8 316.7 C 468.9 316.8 469.0 316.8 469.0 316.8 C 469.0 316.7 469.0 316.8 469.1 316.9 C 469.1 316.9 469.1 316.9 469.1 317.0 C 469.1 317.1 469.1 317.1 469.2 317.0 C 469.2 317.0 469.2 317.0 469.2 317.0 C 469.3 317.0 469.3 317.1 469.3 317.2 C 469.3 317.4 469.3 317.5 469.4 317.4 C 469.5 317.4 469.5 317.4 469.5 317.4 C 469.5 317.4 469.5 317.5 469.6 317.5 C 469.6 317.5 469.6 317.5 469.6 317.5 C 469.6 317.5 469.6 317.5 469.6 317.6 C 469.5 317.6 469.6 317.7 469.6 317.8 C 469.6 317.8 469.6 317.8 469.6 317.8 C 469.7 317.9 469.7 317.9 469.8 317.9 C 469.8 317.9 469.8 317.9 469.8 317.9 C 469.9 317.9 469.9 317.9 469.9 317.9 C 469.9 317.9 469.9 317.9 469.9 317.9 C 469.9 317.9 469.9 317.9 469.9 317.9 C 469.8 318.0 469.8 318.0 469.8 318.0 C 469.8 318.0 469.8 318.1 469.9 318.1 C 469.9 318.1 469.9 318.1 469.9 318.1 C 469.9 318.1 470.0 318.2 470.0 318.1 C 470.0 318.1 470.0 318.1 470.1 318.1 C 470.1 318.1 470.1 318.1 470.1 318.1 C 470.1 318.1 470.1 318.2 470.1 318.2 C 470.1 318.3 470.1 318.5 470.2 318.5 C 470.2 318.6 470.3 318.7 470.3 318.7 C 470.4 318.7 470.4 318.7 470.4 318.7 C 470.4 318.7 470.4 318.7 470.4 318.7 C 470.4 318.7 470.4 318.7 470.4 318.8 C 470.4 318.8 470.5 318.9 470.5 318.9 C 470.5 318.9 470.5 318.9 470.5 319.0 C 470.6 319.0 470.6 319.1 470.6 319.2 C 470.6 319.3 470.6 319.5 470.8 319.5 C 470.8 319.5 470.8 319.5 470.9 319.5 C 470.9 319.5 470.9 319.7 470.9 319.8 C 470.9 319.8 470.9 319.8 470.9 319.9 C 470.9 319.9 470.9 319.9 470.9 319.9 C 470.9 319.9 470.9 320.0 471.0 320.2 C 471.0 320.2 471.0 320.2 471.0 320.2 C 471.0 320.4 471.1 320.5 471.2 320.5 C 471.2 320.4 471.2 320.5 471.2 320.6 C 471.2 320.6 471.2 320.6 471.2 320.6 C 471.1 320.6 471.1 320.7 471.2 320.9 C 471.2 321.0 471.2 321.0 471.3 321.1 C 471.3 321.2 471.3 321.2 471.3 321.3 C 471.4 321.7 471.5 322.2 471.5 322.4 C 471.5 322.7 471.6 322.9 471.7 323.0 C 471.8 323.2 471.8 323.8 471.7 324.0 C 471.6 324.0 471.6 324.1 471.6 324.2 C 471.6 324.2 471.6 324.3 471.6 324.3 C 471.6 324.3 471.6 324.3 471.6 324.4 C 471.6 324.4 471.5 324.6 471.5 324.7 C 471.5 324.9 471.5 325.1 471.5 325.2 C 471.5 325.3 471.5 325.4 471.5 325.4 C 471.5 325.5 471.5 325.6 471.5 325.6 C 471.5 325.7 471.5 325.7 471.5 325.7 C 471.5 325.9 471.4 326.0 471.4 326.0 C 471.4 326.0 471.4 326.0 471.3 326.0 C 471.3 326.0 471.3 326.0 471.3 326.1 C 471.3 326.1 471.3 326.1 471.3 326.1 C 471.2 326.3 471.2 326.6 471.2 326.7 C 471.2 326.8 471.2 326.9 471.1 327.0 C 471.1 327.0 471.1 327.0 471.0 327.0 C 471.0 327.1 471.0 327.1 471.0 327.2 C 470.9 327.3 470.8 327.6 470.7 327.7 C 470.7 327.8 470.6 327.9 470.7 327.9 C 470.7 327.9 470.7 328.0 470.7 328.0 C 470.7 328.1 470.6 328.1 470.6 328.1 C 470.4 328.2 470.3 328.4 470.4 328.6 C 470.4 328.6 470.4 328.6 470.4 328.6 C 470.4 328.6 470.4 328.6 470.4 328.6 C 470.4 328.6 470.4 328.6 470.4 328.6 C 470.3 328.6 470.2 328.6 470.2 328.7 C 470.1 328.7 470.1 329.0 470.1 329.0 C 470.1 329.1 470.1 329.2 470.1 329.2 C 470.1 329.2 470.0 329.2 470.0 329.2 C 469.9 329.2 469.9 329.3 469.9 329.3 C 469.8 329.4 469.8 329.4 469.8 329.4 C 469.8 329.4 469.8 329.4 469.7 329.4 C 469.7 329.4 469.7 329.4 469.7 329.4 C 469.7 329.4 469.7 329.4 469.7 329.5 C 469.6 329.5 469.6 329.5 469.6 329.5 C 469.5 329.7 469.5 329.7 469.5 329.7 C 469.5 329.7 469.6 329.8 469.6 329.8 C 469.6 329.8 469.5 329.9 469.5 329.9 C 469.4 330.0 469.3 330.0 469.3 330.1 C 469.3 330.1 469.3 330.2 469.2 330.2 C 469.1 330.3 469.1 330.3 469.1 330.4 C 469.1 330.4 469.1 330.4 469.1 330.4 C 469.1 330.5 469.0 330.5 469.0 330.5 C 469.0 330.5 469.0 330.5 469.0 330.5 C 468.9 330.5 468.9 330.5 468.8 330.6 C 468.8 330.6 468.8 330.6 468.8 330.7 C 468.8 330.7 468.8 330.7 468.8 330.7 C 468.8 330.8 468.8 330.8 468.7 330.8 C 468.7 330.7 468.6 330.7 468.6 330.8 C 468.4 330.8 468.2 330.9 468.2 331.1 C 468.2 331.1 468.1 331.1 468.1 331.1 C 468.1 331.2 468.1 331.2 468.1 331.2 C 468.1 331.2 468.1 331.2 468.1 331.2 C 468.0 331.3 468.0 331.3 467.9 331.3 C 467.9 331.2 467.8 331.3 467.7 331.4 C 467.7 331.4 467.7 331.4 467.7 331.5 C 467.7 331.5 467.7 331.5 467.7 331.5 C 467.7 331.6 467.7 331.6 467.7 331.6 C 467.7 331.6 467.7 331.6 467.7 331.6 C 467.7 331.6 467.6 331.6 467.6 331.6 C 467.5 331.5 467.5 331.5 467.4 331.8 C 467.4 331.8 467.4 331.8 467.4 331.8 C 467.4 331.8 467.4 331.8 467.4 331.8 C 467.3 331.9 467.3 331.9 467.2 331.9 C 467.0 331.9 466.9 331.9 466.8 332.0 C 466.7 332.0 466.5 332.1 466.2 332.3 C 465.8 332.5 465.2 332.7 464.9 332.8 C 464.6 332.9 464.5 332.9 464.4 333.0 C 464.2 333.0 464.1 333.0 464.1 333.1 C 464.1 333.1 464.1 333.1 464.1 333.1 C 464.1 333.2 464.1 333.2 464.1 333.2 C 464.1 333.2 463.2 333.2 461.6 333.3 Z M 501.1 332.9 C 501.0 332.9 501.0 332.9 501.0 332.9 C 500.8 332.9 500.7 332.9 500.5 332.9 C 499.6 332.8 499.2 332.7 498.6 332.3 C 498.4 332.2 498.4 332.2 498.3 332.1 C 498.3 332.1 498.2 332.1 498.2 332.1 C 498.2 332.1 498.1 332.0 498.1 332.0 C 498.1 332.0 498.0 332.0 498.0 332.0 C 498.0 331.9 497.9 331.9 497.9 331.9 C 497.8 331.8 497.8 331.7 497.8 331.6 C 497.8 331.6 497.8 331.6 497.8 331.6 C 497.8 331.6 497.7 331.5 497.7 331.5 C 497.7 331.4 497.6 331.2 497.6 331.1 C 497.5 331.0 497.5 330.9 497.4 330.8 C 497.4 330.7 497.4 330.7 497.3 330.7 C 497.3 330.7 497.3 330.7 497.3 330.7 C 497.2 330.8 497.2 330.7 497.2 330.7 C 497.2 330.6 497.2 330.6 497.2 330.6 C 497.3 330.6 497.3 330.5 497.3 330.4 C 497.3 330.3 497.3 330.3 497.3 330.2 C 497.2 330.2 497.0 329.7 497.0 329.2 L 497.0 328.9 L 497.0 328.2 L 497.0 328.0 L 497.1 328.0 L 496.5 328.0 L 496.0 328.0 L 496.0 327.3 L 496.0 327.3 L 496.0 326.0 L 496.5 326.0 L 496.8 326.0 L 497.0 326.0 L 497.0 323.3 L 497.0 320.0 L 496.5 320.0 L 496.0 320.0 L 496.0 319.4 L 496.0 319.4 L 496.0 318.0 L 498.7 318.0 L 502.0 318.0 L 502.0 319.4 L 502.0 320.0 L 500.8 320.0 L 500.0 320.0 L 500.0 320.0 L 500.0 320.0 L 500.0 323.3 L 500.0 326.0 L 500.0 326.0 L 500.0 326.0 L 500.3 326.0 L 500.8 326.0 L 502.0 326.0 L 502.0 327.3 L 502.0 328.0 L 500.8 328.0 L 500.0 328.0 L 500.0 329.2 C 500.0 329.7 500.0 330.0 500.0 330.2 C 500.1 330.4 500.1 330.5 500.1 330.5 C 500.1 330.7 500.2 330.7 500.3 330.7 C 500.3 330.7 500.3 330.7 500.3 330.8 C 500.2 330.8 500.4 331.1 500.5 331.0 C 500.6 331.0 500.6 331.0 500.6 331.0 C 500.5 331.1 500.8 331.2 501.1 331.2 C 501.1 331.2 501.1 331.2 501.1 331.2 C 501.2 331.2 501.2 331.2 501.3 331.2 C 501.3 331.2 501.3 331.2 501.3 331.2 C 501.5 331.1 501.7 331.0 501.8 330.8 C 501.8 330.8 501.8 330.8 501.8 330.8 C 501.9 330.7 501.9 330.7 501.9 330.6 C 501.9 330.6 501.9 330.6 501.9 330.6 C 501.9 330.5 501.9 330.5 501.9 330.4 C 501.9 330.4 501.9 330.4 502.0 330.3 C 502.1 330.3 502.2 330.3 502.2 330.2 C 502.2 330.2 502.3 330.2 502.2 330.2 C 502.2 330.3 502.2 330.3 502.2 330.3 C 502.2 330.3 502.2 330.3 502.2 330.4 C 502.2 330.4 502.3 330.4 502.3 330.4 C 502.3 330.4 502.4 330.4 502.4 330.4 C 502.5 330.4 502.5 330.4 502.5 330.5 C 502.5 330.5 502.5 330.5 502.5 330.5 C 502.5 330.5 502.5 330.5 502.5 330.5 C 502.4 330.6 502.5 330.6 502.6 330.7 C 502.8 330.8 503.1 331.1 503.1 331.0 C 503.2 330.9 503.2 330.9 503.3 330.9 C 503.3 330.9 503.3 331.0 503.3 331.0 C 503.3 331.0 503.3 331.0 503.3 331.1 C 503.3 331.1 503.3 331.1 503.4 331.1 C 503.4 331.2 503.4 331.2 503.4 331.2 C 503.4 331.3 503.6 331.5 503.9 331.7 C 503.9 331.7 503.9 332.0 503.9 332.0 L 504.0 332.0 C 504.0 332.0 504.0 331.8 503.9 331.9 C 503.9 331.9 503.9 331.9 503.9 331.9 C 503.9 332.0 503.9 332.0 503.9 332.1 C 503.8 332.1 503.8 332.1 503.7 332.1 C 503.7 332.1 503.7 332.1 503.7 332.1 C 503.7 332.1 503.7 332.1 503.6 332.1 C 503.5 332.2 503.4 332.3 503.5 332.3 C 503.5 332.4 503.5 332.4 503.5 332.4 C 503.5 332.4 503.4 332.4 503.4 332.4 C 503.4 332.3 503.3 332.4 503.2 332.4 C 503.1 332.5 503.1 332.5 503.0 332.5 C 502.5 332.8 502.0 332.9 501.4 332.9 C 501.3 332.9 501.2 332.9 501.1 332.9 Z M 472.7 333.0 L 473.0 330.0 L 473.0 327.0 L 473.7 327.0 L 475.0 327.0 L 475.0 328.8 L 475.0 330.0 L 475.0 330.0 L 475.0 330.0 L 476.1 330.0 L 477.0 330.0 L 477.0 325.5 L 477.0 320.0 L 477.4 320.0 L 477.4 320.0 L 476.3 320.0 C 475.5 320.0 475.1 320.5 475.0 320.4 L 475.0 320.3 C 475.0 320.2 475.0 319.8 475.0 319.3 L 475.0 318.0 L 479.2 318.0 C 481.8 318.0 482.8 318.4 483.0 318.5 L 483.0 319.4 C 483.0 319.4 483.0 319.4 483.0 319.5 L 483.0 319.7 L 483.0 320.0 L 481.9 320.0 L 481.3 320.0 L 480.8 320.0 L 481.0 320.0 L 481.0 320.5 L 481.0 325.5 L 481.0 330.0 L 482.2 330.0 L 484.0 330.0 L 484.0 330.0 L 484.0 330.0 L 484.0 329.6 L 484.0 329.0 L 483.8 329.0 L 483.9 329.0 C 484.0 329.0 484.5 329.0 484.9 329.0 L 486.0 329.0 L 486.0 330.8 L 486.0 333.0 L 479.1 333.0 L 472.7 333.0 Z M 506.2 331.9 C 506.1 331.8 506.0 331.7 505.8 331.6 C 505.7 331.5 505.6 331.5 505.5 331.4 C 505.5 331.4 505.5 331.4 505.5 331.3 C 505.4 331.3 505.3 331.3 505.3 331.3 C 505.3 331.3 505.3 331.3 505.2 331.3 C 505.2 331.3 505.2 331.3 505.1 331.3 C 505.1 331.2 505.1 331.2 505.1 331.2 C 505.2 331.1 505.1 331.1 505.0 331.1 C 505.0 331.0 504.9 330.9 504.8 330.9 C 504.8 330.9 504.8 330.8 504.7 330.8 C 504.7 330.8 504.7 330.8 504.7 330.8 C 504.5 330.7 504.4 330.7 504.4 330.7 C 504.3 330.8 504.3 330.8 504.3 330.7 C 504.4 330.6 504.4 330.6 504.3 330.5 C 504.3 330.5 504.3 330.5 504.3 330.5 C 504.2 330.4 504.2 330.4 504.1 330.4 C 504.1 330.4 504.0 330.3 503.9 330.2 C 503.7 330.1 503.7 330.1 503.7 330.1 C 503.7 330.1 503.6 330.0 503.6 330.0 C 503.5 329.9 504.0 329.7 504.0 329.1 L 504.0 328.0 L 502.8 328.0 L 502.0 328.0 L 502.0 327.3 L 502.0 326.0 L 502.8 326.0 L 503.2 326.0 L 503.5 326.0 L 503.0 326.0 L 503.0 326.3 L 503.0 323.0 C 503.0 322.1 503.5 321.2 503.5 320.6 C 503.5 320.5 503.5 319.9 503.5 319.9 C 503.5 319.8 503.5 319.6 503.4 319.5 C 503.4 319.5 503.5 319.5 503.5 319.5 C 503.6 319.6 503.6 319.6 503.7 319.4 C 503.8 319.3 503.8 319.2 503.8 319.2 C 503.8 319.1 503.8 319.1 503.8 319.0 C 503.8 319.0 503.8 319.0 503.8 319.0 C 503.8 319.0 503.9 319.0 503.9 319.0 C 503.9 319.0 503.9 319.0 503.9 319.0 C 503.9 319.0 504.1 318.9 504.0 318.8 C 504.1 318.7 504.1 318.7 504.1 318.7 C 504.1 318.7 504.1 318.7 504.1 318.7 C 504.3 318.8 504.4 318.6 504.4 318.5 C 504.3 318.5 504.4 318.5 504.4 318.4 C 504.4 318.4 504.5 318.4 504.5 318.4 C 504.5 318.4 504.5 318.4 504.6 318.5 C 504.6 318.5 504.6 318.5 504.7 318.5 C 504.7 318.5 504.8 318.4 504.9 318.4 C 504.9 318.4 505.0 318.4 505.0 318.4 C 505.5 318.3 506.7 318.3 507.5 318.5 C 507.8 318.6 508.1 318.7 508.1 318.7 C 508.1 318.7 508.2 319.1 508.2 319.6 C 508.2 320.3 508.2 320.0 508.1 320.0 L 508.0 320.0 C 507.7 319.9 507.2 320.4 506.9 320.4 C 506.9 320.4 506.8 320.4 506.8 320.5 C 506.8 320.5 506.8 320.5 506.7 320.5 C 506.7 320.5 506.7 320.5 506.7 320.6 C 506.7 320.6 506.7 320.6 506.7 320.6 C 506.6 320.6 506.4 320.8 506.3 321.0 C 506.3 321.0 506.3 321.1 506.3 321.1 C 506.3 321.3 506.3 321.8 506.3 322.4 C 506.3 322.8 506.0 323.2 506.0 323.7 L 506.0 326.0 L 506.3 326.0 L 506.3 326.0 L 506.7 326.0 L 507.2 326.0 L 508.0 326.0 L 508.0 327.3 L 508.0 328.0 L 507.2 328.0 L 506.3 328.0 L 506.0 328.0 L 506.0 328.2 L 506.0 330.1 C 506.0 331.1 506.2 331.8 506.2 331.9 Z M 512.0 328.4 C 511.5 328.4 511.2 328.4 510.9 328.3 C 510.5 328.2 510.2 328.1 509.9 328.0 C 509.9 327.9 509.8 327.9 509.7 327.9 C 509.7 327.9 509.7 327.9 509.6 327.8 C 509.5 327.8 509.5 327.7 509.4 327.8 C 509.4 327.8 509.4 327.8 509.4 327.8 C 509.3 327.8 509.3 327.8 509.3 327.8 C 509.3 327.8 509.2 327.8 509.2 327.8 C 509.2 327.8 509.2 327.8 509.2 327.8 C 509.2 327.7 509.2 327.7 509.2 327.7 C 509.2 327.6 509.2 327.5 509.1 327.4 C 509.1 327.4 509.1 327.4 509.1 327.4 C 509.1 327.4 509.1 327.4 509.1 327.4 C 509.0 327.3 509.0 327.3 508.9 327.3 C 508.8 327.3 508.8 327.3 508.8 327.2 C 508.7 327.2 508.6 327.1 508.6 327.1 C 508.6 327.1 508.7 327.0 508.7 327.0 C 508.7 326.9 508.7 326.8 508.6 326.8 C 508.6 326.7 508.6 326.7 508.6 326.7 C 508.6 326.6 508.6 326.6 508.5 326.7 C 508.5 326.7 508.5 326.7 508.5 326.7 C 508.4 326.6 508.4 326.6 508.4 326.6 C 508.5 326.5 508.5 326.4 508.4 326.3 C 508.4 326.2 508.4 326.2 508.4 326.2 C 508.4 326.0 508.4 325.7 508.4 325.4 C 508.4 325.1 508.4 324.9 508.5 324.7 C 508.5 324.6 508.6 324.5 508.6 324.3 C 508.7 324.3 508.7 324.3 508.7 324.2 C 508.6 324.2 508.6 324.2 508.6 324.1 C 508.6 324.1 508.6 324.1 508.6 324.1 C 508.6 324.0 508.6 324.0 508.6 324.0 C 508.6 323.9 508.7 323.9 508.7 323.8 C 508.7 323.8 508.7 323.8 508.8 323.8 C 508.8 323.8 508.8 323.8 508.8 323.8 C 508.8 323.9 508.9 323.9 508.9 323.8 C 508.9 323.8 508.9 323.7 508.9 323.7 C 508.9 323.6 508.9 323.6 509.0 323.6 C 509.0 323.6 509.1 323.6 509.1 323.6 C 509.0 323.7 509.2 323.7 509.3 323.6 C 509.3 323.6 509.4 323.5 509.5 323.4 C 509.7 323.3 509.8 323.2 509.8 323.1 C 509.8 323.1 509.8 323.1 509.9 323.1 C 509.9 323.1 509.9 323.1 509.9 323.1 C 509.9 323.2 510.0 323.1 510.2 323.1 C 510.2 323.0 510.3 323.0 510.4 323.0 C 510.4 323.0 510.4 323.0 510.4 323.0 C 510.5 322.9 510.7 322.9 510.8 322.8 C 510.8 322.8 510.9 322.8 510.9 322.8 C 511.4 322.6 512.0 322.5 512.8 322.3 C 513.0 322.3 513.1 322.3 513.2 322.3 C 513.5 322.2 513.8 322.1 514.1 322.0 C 514.2 322.0 514.2 322.0 514.2 322.0 C 514.3 322.0 514.4 322.0 514.4 321.9 C 514.5 321.9 514.5 321.9 514.6 321.9 C 514.6 321.8 514.7 321.8 514.7 321.8 C 514.7 321.8 514.8 321.7 514.8 321.7 C 514.8 321.7 514.8 321.6 514.9 321.6 C 514.9 321.6 515.0 321.5 515.0 321.4 C 515.0 321.4 515.0 321.4 515.0 321.4 C 515.1 321.2 515.1 321.1 515.1 321.0 C 515.1 320.9 515.1 320.9 515.0 320.9 C 515.0 320.9 515.0 320.9 515.0 320.9 C 514.9 320.8 514.9 320.8 514.9 320.7 C 515.0 320.7 514.9 320.6 514.9 320.6 C 514.8 320.5 514.7 320.4 514.7 320.4 C 514.6 320.5 514.6 320.5 514.5 320.5 C 514.5 320.5 514.5 320.5 514.5 320.5 C 514.5 320.5 514.5 320.4 514.5 320.4 C 514.5 320.3 514.5 320.2 514.3 320.1 C 514.1 320.1 513.9 320.0 513.5 320.0 C 513.4 320.0 513.4 320.0 513.2 320.0 C 513.1 320.0 513.0 320.0 513.0 320.0 C 512.5 320.0 512.3 320.1 512.0 320.2 C 511.9 320.3 511.8 320.3 511.7 320.4 C 511.7 320.4 511.7 320.4 511.6 320.4 C 511.6 320.4 511.5 320.5 511.5 320.5 C 511.5 320.5 511.5 320.6 511.5 320.6 C 511.5 320.7 511.5 320.7 511.5 320.7 C 511.5 320.7 511.4 320.7 511.4 320.7 C 511.4 320.7 511.4 320.7 511.4 320.7 C 511.3 320.6 511.3 320.6 511.2 320.7 C 511.2 320.8 511.2 320.9 511.2 320.9 C 511.2 320.9 511.2 321.0 511.2 320.9 C 511.1 320.9 511.1 321.0 511.0 321.1 C 511.0 321.1 511.0 321.1 511.0 321.1 C 511.0 321.2 511.0 321.2 511.0 321.2 L 511.0 322.0 L 509.8 322.0 L 508.9 322.0 C 508.8 322.0 509.0 321.5 509.0 321.5 L 509.0 319.9 L 509.0 318.0 L 509.8 318.0 L 511.0 318.0 L 511.0 318.6 C 511.0 318.8 510.8 318.9 510.9 318.9 C 510.9 318.9 510.9 318.9 511.0 318.9 C 511.0 318.9 511.0 318.9 511.0 318.9 C 511.0 318.9 511.0 318.8 511.1 318.8 C 511.2 318.7 511.2 318.7 511.2 318.6 C 511.3 318.6 511.4 318.5 511.4 318.5 C 511.6 318.5 511.7 318.4 511.7 318.3 C 511.7 318.3 511.8 318.3 511.9 318.3 C 512.0 318.3 512.2 318.2 512.4 318.2 C 512.9 318.1 514.1 318.1 514.7 318.2 C 515.0 318.3 515.4 318.4 515.6 318.5 C 515.7 318.6 515.8 318.6 515.9 318.6 C 516.0 318.7 516.0 318.7 516.0 318.7 C 516.2 318.8 516.2 318.8 516.3 318.7 C 516.3 318.7 516.4 318.8 516.4 318.9 C 516.4 318.9 516.4 319.0 516.4 319.0 C 516.5 319.0 516.5 319.0 516.5 319.0 C 516.5 319.0 516.6 319.0 516.6 319.0 C 516.6 319.0 516.6 319.0 516.6 319.0 C 516.6 319.1 516.7 319.2 516.8 319.3 C 516.8 319.3 516.8 319.3 516.8 319.4 C 516.9 319.5 517.0 319.5 517.0 319.5 C 517.0 319.7 517.4 320.4 517.4 320.4 C 517.5 320.4 517.0 320.8 517.0 321.5 L 517.0 323.0 L 517.4 323.0 C 517.3 323.0 517.2 322.6 517.2 322.6 C 517.2 322.7 517.2 322.7 517.2 322.7 C 517.2 322.8 517.1 322.9 517.1 323.0 C 517.0 323.0 516.9 323.1 516.9 323.1 C 516.9 323.1 516.9 323.2 516.9 323.2 C 516.8 323.3 516.8 323.3 516.9 323.3 C 516.9 323.3 516.9 323.3 516.9 323.3 C 516.9 323.4 516.8 323.4 516.8 323.4 C 516.7 323.4 516.3 323.7 516.4 323.8 C 516.4 323.9 516.4 323.9 516.2 323.9 C 516.1 323.9 516.0 323.9 516.0 323.9 C 516.0 323.9 516.0 323.9 516.0 323.9 C 515.9 324.0 515.8 324.0 515.8 324.1 C 515.9 324.2 515.6 324.3 515.4 324.2 C 515.4 324.2 515.1 324.2 514.8 324.3 C 514.6 324.4 513.7 324.6 512.9 324.7 C 512.8 324.8 512.7 324.8 512.6 324.8 C 512.4 324.8 512.1 324.9 511.7 325.0 C 511.4 325.1 511.2 325.1 511.1 325.2 C 511.1 325.2 511.0 325.3 511.0 325.3 C 511.0 325.3 511.0 325.4 511.0 325.4 C 510.9 325.3 510.8 325.5 510.8 325.7 C 510.8 325.7 510.8 325.7 510.8 325.7 C 510.8 325.7 510.8 325.8 510.8 325.8 C 510.8 325.8 510.8 325.9 510.8 325.9 C 510.8 326.0 510.9 326.1 511.0 326.2 C 511.0 326.3 511.1 326.3 511.2 326.4 C 511.2 326.4 511.2 326.4 511.2 326.4 C 511.3 326.5 511.4 326.5 511.5 326.6 C 511.6 326.6 511.6 326.6 511.7 326.6 C 511.7 326.6 511.7 326.6 511.7 326.6 C 511.7 326.6 511.7 326.6 511.7 326.6 C 512.2 326.7 513.2 326.6 513.6 326.5 C 513.6 326.5 513.6 326.5 513.6 326.5 C 513.8 326.4 513.9 326.4 514.0 326.4 C 514.0 326.3 514.0 326.3 514.0 326.3 C 514.1 326.3 514.1 326.2 514.1 326.2 C 514.1 326.2 514.1 326.1 514.1 326.1 C 514.1 326.1 514.1 326.1 514.1 326.1 C 514.1 326.1 514.1 326.1 514.2 326.1 C 514.2 326.0 514.3 326.0 514.3 325.9 C 514.4 325.8 514.5 325.8 514.5 325.8 C 514.5 325.8 514.5 325.8 514.5 325.8 C 514.6 325.8 514.6 325.8 514.6 325.7 C 514.6 325.7 514.6 325.7 514.7 325.7 C 514.7 325.6 515.0 326.0 515.7 326.0 L 517.0 326.0 L 517.0 326.9 L 517.0 328.0 L 515.8 328.0 C 515.6 328.0 515.6 328.0 515.5 328.0 L 515.0 328.0 L 515.0 328.1 C 515.0 328.0 514.7 327.9 514.6 327.9 C 514.6 327.9 514.6 327.9 514.6 327.9 C 514.5 328.0 514.3 328.0 514.2 328.1 C 514.1 328.1 514.1 328.1 514.0 328.1 C 513.4 328.3 512.7 328.4 512.0 328.4 Z M 483.6 328.0 L 484.0 327.3 L 484.0 326.0 L 484.3 326.0 L 484.8 326.0 L 485.1 326.0 L 485.0 326.0 L 485.0 326.3 L 485.0 323.4 C 485.0 322.6 485.1 321.9 485.1 321.4 C 485.1 321.4 485.1 321.3 485.1 321.3 C 485.1 320.9 485.2 320.6 485.2 320.4 C 485.2 320.3 485.2 320.2 485.2 320.1 C 485.3 320.1 485.3 320.0 485.3 320.0 C 485.3 319.9 485.3 319.8 485.3 319.8 C 485.3 319.8 485.3 319.8 485.3 319.7 C 485.3 319.7 485.3 319.7 485.3 319.7 C 485.3 319.5 485.3 319.5 485.4 319.5 C 485.5 319.6 485.6 319.4 485.5 319.3 C 485.5 319.3 485.5 319.3 485.6 319.3 C 485.6 319.3 485.7 319.2 485.7 319.1 C 485.8 319.1 485.8 319.1 485.9 319.0 C 486.0 319.0 486.0 318.9 486.0 318.9 C 486.1 318.8 486.1 318.8 486.2 318.7 C 486.3 318.8 486.4 318.7 486.4 318.6 C 486.3 318.6 486.3 318.5 486.3 318.5 C 486.3 318.5 486.4 318.5 486.4 318.5 C 486.4 318.4 486.4 318.4 486.6 318.5 C 486.7 318.5 486.9 318.4 487.1 318.4 C 487.2 318.4 487.4 318.3 487.5 318.3 C 487.5 318.3 487.6 318.3 487.6 318.3 C 487.8 318.3 487.9 318.3 488.1 318.3 C 488.5 318.3 488.8 318.4 489.0 318.4 C 489.6 318.6 490.4 318.9 490.7 319.1 C 490.8 319.2 490.9 319.2 490.9 319.2 C 490.9 319.2 490.9 319.2 490.9 319.2 C 491.0 319.2 491.0 319.3 491.0 319.3 C 491.0 319.3 491.0 319.3 491.0 319.3 C 491.1 319.4 491.2 319.5 491.2 319.4 C 491.3 319.4 491.0 319.2 491.0 318.9 L 491.0 318.0 L 493.2 318.0 L 495.0 318.0 L 495.0 319.4 L 495.0 320.0 L 494.6 320.0 L 494.6 320.0 L 494.0 320.0 L 494.0 322.1 L 494.0 324.3 L 494.0 328.0 L 491.9 328.0 L 489.7 328.0 L 489.7 328.0 C 489.7 328.1 490.0 327.8 490.0 327.2 L 490.0 326.0 L 490.4 326.0 L 490.9 326.0 L 491.2 326.0 L 491.0 326.0 L 491.0 326.3 L 491.0 323.8 C 491.0 322.9 491.0 322.1 491.0 321.7 L 491.0 321.4 L 491.0 321.4 C 491.2 321.4 491.2 321.3 491.2 321.3 C 491.2 321.3 491.2 321.3 491.2 321.3 L 491.2 321.3 C 491.0 321.2 491.0 321.2 490.9 321.2 C 490.9 321.2 490.9 321.2 490.9 321.2 C 490.8 321.2 490.7 321.2 490.7 321.1 C 490.7 321.0 490.7 321.0 490.5 320.9 C 490.4 320.8 490.3 320.8 490.1 320.7 C 490.1 320.7 490.1 320.7 490.1 320.7 C 489.9 320.6 489.8 320.6 489.6 320.5 C 489.3 320.5 489.1 320.5 488.9 320.5 C 488.6 320.6 488.5 320.6 488.7 320.7 C 488.7 320.7 488.7 320.7 488.7 320.7 C 488.7 320.7 488.7 320.7 488.7 320.7 C 488.7 320.7 488.7 320.7 488.6 320.7 C 488.6 320.7 488.6 320.7 488.6 320.7 C 488.5 320.6 488.5 320.6 488.4 320.7 C 488.4 320.7 488.4 320.7 488.4 320.9 C 488.4 321.0 488.3 321.0 488.3 321.0 C 488.3 321.0 488.3 321.0 488.3 321.0 C 488.3 320.9 488.2 320.9 488.2 320.9 C 488.2 320.9 488.1 320.9 488.1 321.0 C 488.0 321.1 488.0 321.1 488.0 321.2 C 488.0 321.3 487.9 321.4 487.9 321.5 C 487.9 321.6 487.9 321.6 487.9 321.6 C 487.9 321.8 488.0 323.3 488.0 325.1 L 488.0 325.9 L 488.0 328.0 L 485.7 328.0 L 483.6 328.0 Z M 502.5 316.7 C 502.5 316.7 502.4 316.7 502.4 316.7 C 502.4 316.6 502.4 316.6 502.4 316.6 C 502.4 316.5 502.4 316.5 502.4 316.5 C 502.5 316.4 502.5 316.3 502.3 316.3 C 502.3 316.3 502.3 316.3 502.3 316.3 C 502.3 316.3 502.3 316.3 502.2 316.3 C 502.2 316.3 502.2 316.0 502.2 316.0 L 502.2 316.0 C 502.2 316.0 502.1 316.3 502.1 316.3 L 502.1 316.3 C 502.2 316.2 502.3 316.2 502.2 316.0 C 502.2 316.0 502.2 315.9 502.2 315.9 C 502.2 315.9 502.2 315.9 502.2 315.9 C 502.2 315.7 502.2 315.5 502.3 315.5 C 502.3 315.4 502.3 315.4 502.3 315.3 C 502.4 315.3 502.4 315.3 502.4 315.2 C 502.5 315.3 502.9 315.1 502.9 315.0 C 502.9 315.0 502.9 314.9 503.0 314.9 C 503.0 314.9 503.1 314.9 503.1 314.8 C 503.1 314.8 503.1 314.8 503.2 314.8 C 503.2 314.8 503.2 314.8 503.3 314.8 C 503.3 314.8 503.4 314.7 503.4 314.5 C 503.4 314.4 503.4 314.3 503.3 314.2 C 503.3 314.1 503.1 314.0 502.9 314.0 C 502.8 314.0 502.6 314.1 502.5 314.2 C 502.5 314.3 502.5 314.3 502.5 314.3 C 502.5 314.3 502.5 314.3 502.4 314.4 C 502.4 314.4 502.4 314.4 502.4 314.4 C 502.4 314.4 502.4 314.5 502.4 314.6 C 502.3 314.7 502.3 314.7 502.3 314.7 C 502.2 314.7 502.2 314.6 502.1 314.5 C 502.2 314.2 502.2 314.0 502.2 314.0 C 502.3 314.0 502.3 313.9 502.3 313.9 C 502.3 313.9 502.5 313.8 502.8 313.8 L 502.8 313.8 C 503.2 313.8 503.4 313.9 503.4 313.9 C 503.4 314.0 503.6 314.1 503.7 314.1 C 503.7 314.1 503.7 314.1 503.7 314.1 C 503.8 314.1 503.8 314.1 503.8 314.1 C 503.9 314.1 503.9 314.1 503.8 314.2 C 503.8 314.2 503.7 314.4 503.8 314.5 C 503.8 314.6 503.8 314.7 503.8 314.7 C 503.8 315.1 503.6 315.3 503.1 315.5 C 502.9 315.5 502.7 315.6 502.7 315.7 C 502.4 315.9 502.6 316.5 503.0 316.4 C 503.1 316.4 503.1 316.4 503.1 316.3 C 503.1 316.3 503.2 316.2 503.2 316.3 C 503.4 316.3 503.6 315.9 503.5 315.8 C 503.4 315.7 503.5 315.7 503.5 315.7 C 503.5 315.8 503.6 315.8 503.6 315.8 C 503.6 316.0 503.6 316.2 503.6 316.4 C 503.6 316.5 503.5 316.6 503.5 316.5 C 503.4 316.5 503.4 316.5 503.3 316.5 C 503.2 316.5 503.2 316.5 503.1 316.5 C 503.1 316.5 503.1 316.5 503.0 316.5 C 503.0 316.5 502.9 316.6 502.8 316.5 C 502.6 316.5 502.5 316.5 502.5 316.6 C 502.5 316.6 502.5 316.6 502.5 316.6 C 502.5 316.7 502.5 316.7 502.5 316.7 Z M 511.9 316.6 L 511.7 317.0 C 511.7 317.0 511.7 316.6 511.7 316.6 C 511.6 316.5 510.9 316.5 510.4 316.5 C 510.1 316.5 509.8 316.5 509.7 316.6 C 509.6 316.7 509.5 316.6 509.5 316.3 C 509.5 316.2 509.4 316.1 509.4 316.0 C 509.4 315.9 509.4 315.9 509.5 315.9 C 509.5 315.9 509.5 315.9 509.6 315.9 C 509.6 315.9 509.6 316.0 509.6 316.0 C 509.6 316.1 509.6 316.1 509.7 316.0 C 509.7 316.0 509.7 316.0 509.7 316.0 C 509.8 316.0 509.8 316.1 509.8 316.1 C 509.8 316.1 509.8 316.1 509.8 316.1 C 509.7 316.2 509.7 316.2 509.8 316.3 C 509.8 316.3 509.9 316.3 510.0 316.3 C 510.0 316.3 510.1 316.3 510.1 316.3 C 510.1 316.3 510.1 316.0 510.2 316.0 L 510.0 316.0 L 510.0 315.6 L 510.0 315.3 C 510.0 314.6 510.5 314.3 510.4 314.1 C 510.4 314.1 510.3 314.0 510.3 314.0 C 510.3 314.0 510.2 314.0 510.2 314.0 C 510.2 314.0 510.2 314.0 510.1 314.0 C 510.1 314.0 510.1 314.0 510.1 314.0 C 510.1 314.0 510.3 313.9 510.7 313.9 C 511.0 313.9 511.2 314.0 511.3 314.0 C 511.2 314.0 511.2 314.0 511.1 314.0 C 511.1 314.0 511.1 314.0 511.1 314.0 C 511.1 314.0 511.1 314.0 511.1 314.0 C 511.0 314.1 511.0 314.1 511.0 314.1 C 511.0 314.1 511.0 314.2 511.0 314.2 C 510.9 314.3 510.9 314.6 511.0 315.1 C 511.0 315.2 511.0 315.2 511.0 315.2 L 511.0 316.0 L 511.0 316.0 L 511.0 316.0 L 511.0 316.0 L 511.2 316.0 C 511.3 316.0 511.4 316.3 511.5 316.3 C 511.6 316.3 511.6 316.3 511.6 316.2 C 511.7 316.2 511.7 316.1 511.7 316.1 C 511.6 316.0 511.6 316.0 511.6 316.0 C 511.6 316.0 511.6 316.0 511.6 316.0 C 511.6 316.0 511.6 316.0 511.7 316.0 C 511.7 316.0 511.8 316.1 511.9 316.0 L 512.0 316.0 C 512.0 316.0 512.0 315.8 512.0 315.8 L 512.0 316.1 C 512.0 316.2 511.9 316.3 511.9 316.4 C 511.9 316.4 511.9 316.4 511.9 316.4 C 511.9 316.5 511.9 316.6 511.9 316.6 Z M 492.9 316.6 C 492.9 316.6 492.9 316.6 492.8 316.6 C 492.8 316.6 492.8 316.6 492.8 316.6 C 492.8 316.5 492.8 316.5 492.9 316.5 C 492.9 316.4 493.0 316.4 493.1 316.4 C 493.1 316.4 493.2 316.0 493.2 316.0 L 493.0 316.0 L 493.0 316.1 C 493.0 316.0 493.4 315.7 493.4 315.2 C 493.4 314.6 493.4 314.2 493.4 314.1 C 493.4 314.1 493.4 314.1 493.3 314.1 C 493.3 314.1 493.3 314.1 493.3 314.1 C 493.2 314.2 493.2 314.2 493.2 314.2 C 493.1 314.2 493.0 314.1 492.9 314.1 C 492.9 314.0 492.9 314.0 492.9 314.0 C 493.0 313.9 493.1 314.0 494.1 314.0 L 495.1 314.0 C 495.2 314.1 495.2 314.1 495.3 314.4 C 495.3 314.7 495.3 314.7 495.1 314.7 C 495.0 314.7 495.0 314.6 495.0 314.4 C 495.0 314.3 495.0 314.2 494.9 314.2 C 494.8 314.1 494.5 314.0 494.3 314.0 C 494.1 314.0 494.0 314.1 493.9 314.1 C 493.9 314.1 493.9 314.2 493.9 314.2 C 493.9 314.2 493.9 314.3 493.9 314.6 C 493.9 314.6 494.0 314.7 494.0 314.7 L 494.0 315.2 L 494.0 315.0 L 493.8 315.0 L 494.0 315.0 C 494.1 315.0 494.1 315.2 494.1 315.2 C 494.3 315.2 494.3 315.2 494.4 315.1 C 494.4 315.1 494.4 315.0 494.4 315.0 C 494.5 314.9 494.5 314.9 494.6 314.9 C 494.6 314.9 494.6 315.0 494.6 315.2 C 494.6 315.3 494.6 315.3 494.6 315.3 C 494.6 315.5 494.6 315.7 494.6 315.8 C 494.7 315.9 495.0 315.9 495.0 316.0 L 495.0 316.1 L 495.0 316.0 C 495.1 315.9 495.1 315.8 495.1 315.9 C 495.1 315.9 495.1 315.9 495.1 316.0 C 495.1 316.0 495.1 316.1 495.1 316.2 C 495.1 316.2 495.0 316.2 495.0 316.3 L 495.0 317.0 L 494.1 317.0 C 493.6 317.0 493.3 316.5 493.1 316.5 C 493.0 316.5 493.0 316.6 493.0 316.6 C 492.9 316.6 492.9 316.6 492.9 316.6 C 492.9 316.6 492.9 316.6 492.9 316.6 Z M 478.0 316.6 C 477.9 316.6 477.9 316.6 477.9 316.6 C 477.9 316.5 477.7 316.5 477.5 316.5 C 477.4 316.5 477.2 316.5 477.1 316.5 C 477.0 316.5 476.9 316.5 476.9 316.6 C 476.8 316.6 476.8 316.6 476.8 316.6 C 476.8 316.6 476.8 316.6 476.8 316.5 C 476.8 316.5 476.8 316.5 476.8 316.5 C 476.8 316.4 476.9 316.3 477.1 316.3 C 477.2 316.3 477.2 316.3 477.2 316.3 C 477.3 316.2 477.3 316.2 477.3 316.2 C 477.3 316.2 477.3 316.1 477.3 316.0 C 477.3 315.9 477.3 315.5 477.3 315.2 C 477.3 314.9 477.3 314.7 477.3 314.6 C 477.3 314.6 477.3 314.6 477.2 314.6 C 477.2 314.5 477.2 314.5 477.2 314.5 C 477.1 314.4 477.0 314.3 477.1 314.3 C 477.2 314.1 476.7 314.0 476.4 314.1 C 476.3 314.2 476.2 314.2 476.2 314.3 C 476.1 314.3 476.0 314.5 476.0 314.7 C 476.0 315.1 476.0 315.9 476.0 316.1 C 476.0 316.3 476.1 316.3 476.2 316.4 C 476.3 316.4 476.3 316.4 476.3 316.4 C 476.3 316.5 476.1 316.5 475.9 316.5 C 475.9 316.5 475.8 316.5 475.6 316.5 C 475.4 316.5 475.2 316.5 475.2 316.4 C 475.2 316.4 475.3 316.4 475.4 316.4 C 475.4 316.4 475.4 316.0 475.4 316.0 L 476.0 316.0 L 476.0 316.1 C 476.0 316.0 475.5 315.8 475.5 315.4 C 475.6 314.3 475.6 314.2 476.0 314.0 C 476.1 313.9 476.1 313.9 476.2 313.9 C 476.2 313.9 476.2 313.9 476.3 313.9 C 476.3 313.9 476.3 313.9 476.3 313.9 C 476.4 313.9 476.5 313.9 476.6 313.9 C 476.8 313.9 476.9 313.9 477.1 314.0 C 477.2 314.1 477.4 314.3 477.4 314.4 C 477.4 314.4 477.5 314.6 477.5 314.8 C 477.5 315.0 478.0 315.1 478.0 315.4 L 478.0 316.0 L 478.0 316.0 L 478.0 316.0 L 477.8 316.0 C 477.9 316.0 478.0 316.4 478.0 316.4 C 478.0 316.5 478.0 316.5 478.0 316.5 C 477.9 316.5 477.9 316.5 478.0 316.6 C 478.0 316.6 478.0 316.6 478.0 316.6 Z M 499.1 316.6 C 499.1 316.6 499.1 316.6 499.1 316.6 C 499.1 316.5 498.7 316.5 498.3 316.5 C 497.6 316.5 497.4 316.1 497.7 316.0 L 498.0 316.0 L 498.0 316.2 C 498.0 316.1 497.8 315.9 497.8 315.2 C 497.8 314.1 497.8 314.1 497.7 314.1 C 497.6 314.0 497.6 314.0 497.6 313.9 C 497.6 313.9 497.8 313.9 498.6 313.8 C 499.0 313.9 499.1 313.9 499.1 313.9 C 499.1 314.0 499.1 314.0 499.1 314.0 C 499.1 314.1 499.2 314.1 499.2 314.0 C 499.3 313.9 499.9 313.9 500.0 314.0 C 500.0 314.0 499.9 314.0 499.9 314.0 C 499.9 314.0 499.8 314.1 499.7 314.1 C 499.7 314.1 499.7 314.2 499.6 314.3 C 499.5 314.4 499.4 314.5 499.5 314.6 C 499.5 314.7 499.5 314.7 499.5 314.7 C 499.5 314.7 499.5 314.7 499.4 314.7 C 499.4 314.7 499.4 314.7 499.4 314.7 C 499.4 314.7 499.4 314.7 499.4 314.7 C 499.3 314.7 499.3 314.7 499.3 314.8 C 499.3 314.8 499.3 314.8 499.3 314.8 C 499.2 314.8 499.2 314.9 499.2 315.0 C 499.3 315.0 499.3 315.1 499.3 315.1 C 499.2 315.1 499.3 315.1 499.3 315.2 C 499.4 315.2 499.4 315.2 499.4 315.3 C 499.4 315.3 499.4 315.3 499.4 315.3 C 499.4 315.4 499.4 315.4 499.5 315.5 C 499.5 315.5 499.5 315.6 499.5 315.7 C 499.5 315.8 499.5 315.9 499.5 316.0 C 499.5 316.1 499.5 316.1 499.4 316.2 C 499.4 316.3 499.3 316.4 499.3 316.5 C 499.3 316.5 499.3 316.5 499.3 316.5 C 499.3 316.5 499.3 316.5 499.3 316.5 C 499.3 316.5 499.3 316.5 499.2 316.5 C 499.2 316.5 499.1 316.5 499.1 316.6 C 499.1 316.6 499.1 316.6 499.1 316.6 Z M 506.0 316.6 C 505.9 316.6 505.9 316.6 505.9 316.5 C 506.0 316.5 506.0 316.5 506.0 316.6 C 506.0 316.6 506.0 316.6 506.0 316.6 Z M 514.3 316.5 C 514.1 316.5 514.1 316.5 514.1 316.4 C 514.1 316.3 514.1 316.3 514.2 316.3 C 514.3 316.4 514.3 316.4 514.4 316.3 C 514.5 316.2 514.5 316.2 514.4 316.0 C 514.4 316.0 514.4 316.0 514.4 316.0 C 514.4 315.9 514.4 315.9 514.4 316.0 C 514.5 316.0 514.5 316.0 514.6 315.9 C 514.7 315.9 514.7 315.8 514.7 315.8 C 514.7 315.7 514.7 315.7 514.7 315.7 C 514.7 315.7 514.7 315.7 514.7 315.7 C 514.7 315.8 514.8 315.7 514.8 315.6 C 514.9 315.6 514.9 315.5 514.9 315.5 C 514.9 315.4 515.0 315.4 515.0 315.4 C 515.1 315.2 515.1 315.1 515.2 315.0 C 515.2 315.0 515.2 314.9 515.2 314.9 C 515.2 314.8 515.2 314.7 515.2 314.5 C 515.2 314.5 515.2 314.5 515.2 314.5 C 515.2 314.1 515.2 314.0 515.0 314.0 C 515.0 314.0 514.9 314.0 514.9 314.0 C 515.0 314.0 515.2 313.9 515.4 313.9 C 515.8 313.9 515.9 313.9 515.9 314.0 C 515.9 314.0 515.9 314.0 515.8 314.1 C 515.7 314.1 515.6 314.4 515.6 314.8 C 515.6 315.0 515.7 315.2 515.8 315.2 C 515.8 315.1 515.8 315.2 515.9 315.2 C 515.9 315.2 515.9 315.2 515.9 315.2 C 515.9 315.2 515.9 315.2 515.9 315.2 C 515.8 315.3 515.9 315.5 516.0 315.5 C 516.1 315.5 516.1 315.6 516.1 315.6 C 516.1 315.8 516.2 316.0 516.3 316.0 C 516.3 316.0 516.3 316.0 516.3 316.0 C 516.4 316.0 516.4 316.0 516.4 316.0 C 516.3 316.1 516.4 316.3 516.5 316.3 C 516.6 316.3 516.6 316.4 516.6 316.4 C 516.6 316.4 516.6 316.4 516.6 316.4 C 516.7 316.4 516.7 316.4 516.7 316.4 C 516.7 316.5 516.6 316.5 516.4 316.5 C 516.4 316.5 516.3 316.5 516.3 316.5 C 516.1 316.5 516.0 316.5 515.9 316.4 C 516.0 316.4 516.0 316.4 516.0 316.4 C 516.1 316.4 516.1 316.3 516.1 316.3 C 516.2 316.3 516.2 316.3 516.1 316.2 C 516.1 316.2 516.1 316.2 516.1 316.2 C 516.1 316.2 516.0 316.1 516.0 316.1 C 516.1 316.0 516.0 316.0 516.0 316.0 C 516.0 315.9 515.9 315.8 515.8 315.8 C 515.8 315.8 515.8 315.8 515.8 315.8 C 515.8 315.8 515.7 315.8 515.7 315.8 C 515.7 315.7 515.7 315.7 515.7 315.7 C 515.7 315.7 515.7 315.7 515.7 315.7 C 515.7 315.7 515.7 315.7 515.7 315.7 C 515.7 315.6 515.6 315.6 515.5 315.5 C 515.5 315.5 515.5 315.5 515.4 315.5 C 515.4 315.5 515.4 315.6 515.3 315.6 C 515.3 315.6 515.3 315.6 515.3 315.7 C 515.3 315.7 515.3 315.7 515.3 315.8 C 515.1 316.0 515.1 316.1 515.2 316.2 C 515.2 316.2 515.3 316.3 515.2 316.3 C 515.2 316.5 515.2 316.5 514.8 316.5 C 514.8 316.5 514.7 316.5 514.5 316.5 C 514.4 316.5 514.4 316.5 514.4 316.5 C 514.4 316.5 514.3 316.5 514.3 316.5 Z M 485.9 316.5 C 485.7 316.5 485.5 316.5 485.4 316.5 C 485.1 316.5 485.0 316.5 485.0 316.4 L 485.0 316.4 C 485.0 316.4 485.0 316.0 485.1 316.0 L 485.0 316.0 L 485.0 316.1 C 485.0 315.9 485.3 315.7 485.3 315.3 C 485.3 314.7 485.3 314.5 485.3 314.4 C 485.3 314.1 485.2 314.0 485.1 314.0 C 485.0 314.0 485.0 314.1 485.0 314.0 L 485.5 314.0 C 485.8 314.0 486.0 313.9 486.1 313.9 C 486.1 313.9 486.1 313.9 486.1 314.0 C 486.1 314.0 486.0 314.0 486.0 314.0 C 485.8 314.0 486.0 314.1 486.0 315.3 L 486.0 316.0 L 485.9 316.0 C 485.9 316.0 485.9 316.4 486.0 316.4 C 486.0 316.4 486.1 316.4 486.1 316.4 C 486.1 316.5 486.0 316.5 485.9 316.5 Z M 506.6 316.5 C 506.2 316.5 506.1 316.5 506.1 316.4 C 506.1 316.4 506.2 316.0 506.2 316.0 L 506.0 316.0 L 506.0 315.3 C 506.0 314.2 506.4 314.0 506.2 314.0 C 506.2 314.0 506.1 314.0 506.1 313.9 C 506.0 313.9 506.2 313.8 506.7 313.8 C 507.0 313.8 507.2 313.9 507.3 313.9 C 507.3 313.9 507.4 313.9 507.4 313.9 C 507.4 313.9 507.4 313.9 507.4 313.9 C 507.4 314.0 507.4 314.0 507.4 314.0 C 507.4 314.1 507.4 314.1 507.3 314.1 C 507.2 314.0 507.2 314.0 507.1 314.0 C 507.1 314.0 507.0 314.0 507.0 314.1 C 506.9 314.2 506.9 314.5 506.9 315.3 C 506.9 315.9 507.0 316.1 507.0 316.3 L 507.0 316.0 L 507.1 316.0 C 507.1 316.0 507.2 316.4 507.2 316.4 C 507.2 316.5 506.9 316.5 506.6 316.5 C 506.6 316.5 506.6 316.5 506.6 316.5 Z M 488.9 316.5 C 488.5 316.5 488.3 316.5 488.3 316.4 C 488.3 316.4 488.3 316.3 488.3 316.3 C 488.3 316.3 488.4 316.3 488.4 316.3 C 488.6 316.3 488.6 316.1 488.9 315.5 C 489.0 315.1 489.2 314.5 489.3 314.3 C 489.4 314.0 489.5 313.8 489.5 313.8 C 489.5 313.8 489.6 314.0 489.7 314.2 C 489.7 314.3 489.8 314.3 489.8 314.4 C 489.8 314.5 489.9 314.5 489.9 314.5 C 489.9 314.5 489.9 314.5 490.0 314.5 C 490.0 314.4 490.0 314.4 490.0 314.5 C 489.9 314.5 489.9 314.6 490.0 314.8 C 490.0 314.9 490.0 314.9 490.0 315.0 C 490.1 315.2 490.2 315.3 490.2 315.3 C 490.3 315.3 490.3 315.3 490.3 315.3 C 490.3 315.3 490.3 315.3 490.3 315.3 C 490.2 315.4 490.2 315.5 490.3 315.6 C 490.3 315.6 490.3 315.6 490.3 315.6 C 490.4 315.8 490.4 315.9 490.5 316.1 C 490.5 316.1 490.5 316.1 490.5 316.1 C 490.6 316.2 490.6 316.3 490.7 316.3 C 490.7 316.3 490.8 316.4 490.9 316.3 C 491.0 316.3 491.0 316.3 491.0 316.4 C 490.9 316.5 490.8 316.5 490.5 316.5 C 490.1 316.5 490.1 316.5 490.0 316.4 C 490.0 316.3 489.9 316.2 490.0 316.2 C 490.0 316.2 490.0 316.2 490.1 316.2 C 490.1 316.2 490.1 316.2 490.2 316.2 C 490.3 316.3 490.3 316.2 490.2 316.0 C 490.2 316.0 490.2 315.9 490.2 315.9 C 490.2 315.8 490.1 315.7 490.1 315.6 C 490.0 315.4 490.0 315.3 489.9 315.3 C 489.9 315.2 489.9 315.2 489.9 315.2 C 489.9 315.1 489.8 315.0 489.7 315.0 C 489.5 314.9 489.5 314.9 489.4 315.1 C 489.4 315.2 489.4 315.3 489.4 315.3 C 489.3 315.4 489.3 315.5 489.3 315.6 C 489.3 315.6 489.3 315.6 489.3 315.6 C 489.3 315.6 489.3 315.6 489.3 315.7 C 489.3 315.7 489.3 315.7 489.3 315.7 C 489.2 315.7 489.2 315.7 489.2 315.7 C 489.2 315.7 489.2 315.8 489.2 315.8 C 489.1 316.0 489.1 316.2 489.1 316.3 C 489.1 316.3 489.1 316.3 489.2 316.3 C 489.2 316.3 489.2 316.4 489.3 316.4 C 489.3 316.4 489.3 316.4 489.3 316.4 C 489.4 316.4 489.5 316.4 489.5 316.4 C 489.5 316.4 489.5 316.4 489.5 316.4 C 489.4 316.5 489.2 316.5 488.9 316.5 Z M 482.3 317.0 C 482.3 316.5 482.3 316.5 482.3 316.5 C 481.9 316.5 481.7 316.4 482.0 316.4 C 482.0 316.4 482.0 316.3 482.0 316.3 C 482.1 316.3 482.1 316.3 482.2 316.3 C 482.2 316.3 482.2 316.3 482.2 316.2 C 482.2 316.2 482.2 316.2 482.2 316.2 C 482.3 316.0 482.3 315.6 482.3 315.3 C 482.3 315.0 482.3 314.8 482.3 314.7 C 482.2 314.7 482.2 314.7 482.1 314.8 C 482.1 314.8 482.1 314.8 482.1 314.8 C 482.0 314.9 482.0 315.0 481.9 315.1 C 481.9 315.1 481.9 315.1 481.9 315.1 C 481.8 315.2 481.8 315.3 481.8 315.3 C 481.8 315.3 481.8 315.3 481.8 315.3 C 481.8 315.3 481.8 315.3 481.8 315.3 C 481.7 315.3 481.5 315.4 481.6 315.5 C 481.6 315.6 481.6 315.6 481.6 315.6 C 481.5 315.6 481.5 315.7 481.5 315.7 C 481.5 315.7 481.5 315.8 481.5 315.8 C 481.5 315.8 481.5 315.8 481.4 315.8 C 481.3 315.8 481.3 315.8 481.2 315.9 C 481.1 316.0 481.1 316.0 481.3 316.0 C 481.3 316.0 481.3 316.0 481.3 316.0 C 481.3 316.1 481.3 316.1 481.2 316.1 C 481.2 316.1 481.2 316.1 481.2 316.1 C 481.2 316.1 481.2 316.1 481.2 316.1 C 481.1 316.0 481.1 316.1 481.0 316.2 C 481.0 316.2 481.0 316.2 480.9 316.3 C 480.9 316.3 480.9 316.3 480.8 316.4 C 480.8 316.4 480.8 316.4 480.8 316.4 C 480.7 316.5 480.6 316.5 480.4 316.5 C 480.4 316.5 480.3 316.5 480.2 316.5 C 480.2 316.5 480.2 316.5 480.2 316.5 C 480.1 316.5 479.9 316.5 479.9 316.4 C 479.9 316.4 480.0 316.3 480.1 316.3 C 480.4 316.3 480.4 316.1 480.4 315.1 C 480.4 314.8 480.4 314.7 480.3 314.5 C 480.3 314.3 480.3 314.2 480.3 314.2 C 480.2 314.1 480.2 314.0 480.1 314.0 C 480.0 314.0 480.0 313.9 480.1 313.9 C 480.1 313.9 480.4 313.9 480.9 313.8 C 481.4 313.8 481.4 313.8 482.0 313.8 L 482.0 315.0 C 482.0 315.2 482.4 315.3 482.4 315.5 C 482.4 315.5 482.4 315.6 482.4 315.7 C 482.4 315.8 482.4 315.8 482.4 315.9 C 482.4 316.0 482.5 316.0 482.5 316.1 C 482.5 316.1 482.5 316.1 482.5 316.2 C 482.5 316.3 482.5 316.3 482.6 316.4 C 482.6 316.4 482.6 316.0 482.6 316.0 L 482.7 316.0 C 482.7 316.0 482.7 317.0 482.7 317.0 L 482.3 317.0 Z M 516.9 316.4 C 516.9 316.4 516.8 316.3 516.8 316.3 C 516.8 316.3 516.9 316.2 516.9 316.2 C 516.9 316.2 516.9 316.3 516.9 316.3 C 517.0 316.3 516.9 316.4 516.9 316.4 Z M 516.9 316.4 "></path></clipPath><g clip-path="url(#clip0x6080014b99e0)"><g><clipPath id="clip0x6080010b3aa0"><path d="M 452.2 313.8 L 472.5 313.8 L 472.5 333.3 L 452.2 333.3 Z M 452.2 313.8 "></path></clipPath><g clip-path="url(#clip0x6080010b3aa0)"><image xlink:href="74F9B86291124438D17E610870D7C88C.jpeg" width="1918.00" height="572.00" transform="matrix(0.03, 0.00, -0.00, -0.03, 452.2, 333.3)"></image></g></g></g></g></g></g><image xlink:href="../../0099E750-43F4-4A1E-80C1-2076B752852F/assets/B6E721E2038C90A50B1F3A6242114810.png" width="381.00" height="49.00" transform="matrix(1.00, 0.00, -0.00, -1.00, 438.0, 562.3)" opacity="0.50"></image><path d="M 442.0 560.0 L 815.0 560.0 L 815.0 519.0 L 442.0 519.0 Z M 442.0 560.3 " fill="#FEFFFE"></path><path d="M -0.0 0.3 L 373.0 0.3 L 373.0 41.3 L -0.0 41.3 Z M 0.0 0.0 " fill="none" stroke="#185B93" stroke-width="2.00" transform="matrix(1.00, 0.00, 0.00, -1.00, 442.0, 560.3)"></path><g><clipPath id="clip0x6000016a79e0"><path d="M 441.0 519.3 L 816.0 519.3 L 816.0 560.3 L 441.0 560.3 Z M 441.0 519.3 "></path></clipPath><g clip-path="url(#clip0x6000016a79e0)"><text xml:space="preserve" font-family="Helvetica-Bold,Helvetica" font-weight="bold" font-size="24.0" fill="#2F4D6B" transform="matrix(1.00, 0.00, -0.00, -1.00, 447.0, 530.8)">S</text><text xml:space="preserve" font-family="Helvetica-Bold,Helvetica" font-weight="bold" font-size="24.0" fill="#2F4D6B" transform="matrix(1.00, 0.00, -0.00, -1.00, 463.0, 530.8)">a</text><text xml:space="preserve" font-family="Helvetica-Bold,Helvetica" font-weight="bold" font-size="24.0" fill="#2F4D6B" transform="matrix(1.00, 0.00, -0.00, -1.00, 476.4, 530.8)">n</text><text xml:space="preserve" font-family="Helvetica-Bold,Helvetica" font-weight="bold" font-size="24.0" fill="#2F4D6B" transform="matrix(1.00, 0.00, -0.00, -1.00, 491.1, 530.8)"> </text><text xml:space="preserve" font-family="Helvetica-Bold,Helvetica" font-weight="bold" font-size="24.0" fill="#2F4D6B" transform="matrix(1.00, 0.00, -0.00, -1.00, 497.7, 530.8)">F</text><text xml:space="preserve" font-family="Helvetica-Bold,Helvetica" font-weight="bold" font-size="24.0" fill="#2F4D6B" transform="matrix(1.00, 0.00, -0.00, -1.00, 512.4, 530.8)">r</text><text xml:space="preserve" font-family="Helvetica-Bold,Helvetica" font-weight="bold" font-size="24.0" fill="#2F4D6B" transform="matrix(1.00, 0.00, -0.00, -1.00, 521.7, 530.8)">a</text><text xml:space="preserve" font-family="Helvetica-Bold,Helvetica" font-weight="bold" font-size="24.0" fill="#2F4D6B" transform="matrix(1.00, 0.00, -0.00, -1.00, 535.1, 530.8)">n</text><text xml:space="preserve" font-family="Helvetica-Bold,Helvetica" font-weight="bold" font-size="24.0" fill="#2F4D6B" transform="matrix(1.00, 0.00, -0.00, -1.00, 549.7, 530.8)">c</text><text xml:space="preserve" font-family="Helvetica-Bold,Helvetica" font-weight="bold" font-size="24.0" fill="#2F4D6B" transform="matrix(1.00, 0.00, -0.00, -1.00, 563.1, 530.8)">i</text><text xml:space="preserve" font-family="Helvetica-Bold,Helvetica" font-weight="bold" font-size="24.0" fill="#2F4D6B" transform="matrix(1.00, 0.00, -0.00, -1.00, 569.7, 530.8)">s</text><text xml:space="preserve" font-family="Helvetica-Bold,Helvetica" font-weight="bold" font-size="24.0" fill="#2F4D6B" transform="matrix(1.00, 0.00, -0.00, -1.00, 583.1, 530.8)">c</text><text xml:space="preserve" font-family="Helvetica-Bold,Helvetica" font-weight="bold" font-size="24.0" fill="#2F4D6B" transform="matrix(1.00, 0.00, -0.00, -1.00, 596.4, 530.8)">o</text></g></g><image xlink:href="../../0099E750-43F4-4A1E-80C1-2076B752852F/assets/4B21BE15BBCA3B3AEDD3BDF9C79C530C.png" width="264.00" height="49.00" transform="matrix(1.00, 0.00, -0.00, -1.00, 167.6, 562.3)" opacity="0.50"></image><path d="M 172.0 560.0 L 427.0 560.0 L 427.0 519.0 L 172.0 519.0 Z M 171.6 560.3 " fill="#FEFFFE"></path><path d="M 0.4 0.3 L 255.4 0.3 L 255.4 41.3 L 0.4 41.3 Z M 0.0 0.0 " fill="none" stroke="#185B93" stroke-width="2.00" transform="matrix(1.00, 0.00, 0.00, -1.00, 171.6, 560.3)"></path><g><clipPath id="clip0x6000016bff20"><path d="M 170.6 519.3 L 428.1 519.3 L 428.1 560.3 L 170.6 560.3 Z M 170.6 519.3 "></path></clipPath><g clip-path="url(#clip0x6000016bff20)"><text xml:space="preserve" font-family="Helvetica-Bold,Helvetica" font-weight="bold" font-size="24.0" fill="#094585" transform="matrix(1.00, 0.00, -0.00, -1.00, 176.6, 530.8)">L</text><text xml:space="preserve" font-family="Helvetica-Bold,Helvetica" font-weight="bold" font-size="24.0" fill="#094585" transform="matrix(1.00, 0.00, -0.00, -1.00, 191.2, 530.8)">i</text><text xml:space="preserve" font-family="Helvetica-Bold,Helvetica" font-weight="bold" font-size="24.0" fill="#094585" transform="matrix(1.00, 0.00, -0.00, -1.00, 197.9, 530.8)">a</text><text xml:space="preserve" font-family="Helvetica-Bold,Helvetica" font-weight="bold" font-size="24.0" fill="#094585" transform="matrix(1.00, 0.00, -0.00, -1.00, 211.2, 530.8)">t</text><text xml:space="preserve" font-family="Helvetica-Bold,Helvetica" font-weight="bold" font-size="24.0" fill="#094585" transform="matrix(1.00, 0.00, -0.00, -1.00, 219.2, 530.8)"> </text><text xml:space="preserve" font-family="Helvetica-Bold,Helvetica" font-weight="bold" font-size="24.0" fill="#094585" transform="matrix(1.00, 0.00, -0.00, -1.00, 225.9, 530.8)">L</text><text xml:space="preserve" font-family="Helvetica-Bold,Helvetica" font-weight="bold" font-size="24.0" fill="#094585" transform="matrix(1.00, 0.00, -0.00, -1.00, 240.6, 530.8)">.</text></g></g><path d="M -0.4 0.1 L 24.6 0.1 " fill="none" stroke="#14375D" stroke-width="1.00" transform="matrix(0.00, 1.00, 1.00, 0.00, 247.4, 528.4)"></path><path d="M 0.2 0.2 L 24.2 0.2 " fill="none" stroke="#14375D" stroke-width="1.00" transform="matrix(0.00, 1.00, 1.00, 0.00, 612.3, 528.8)"></path><image xlink:href="59319F353270B605D2C6AA553DAF3924.png" width="55.00" height="29.00" transform="matrix(1.01, 0.00, -0.00, -1.00, 463.9, 355.3)" opacity="0.50"></image><path d="M 468.0 353.0 L 515.0 353.0 L 515.0 332.0 L 468.0 332.0 Z M 467.9 353.3 " fill="#FEFFFE"></path><path d="M 0.1 0.3 L 47.1 0.3 L 47.1 21.3 L 0.1 21.3 Z M 0.0 0.0 " fill="none" stroke="#185B93" stroke-width="2.00" transform="matrix(1.00, 0.00, 0.00, -1.00, 467.9, 353.3)"></path><g><clipPath id="clip0x6000014ac360"><path d="M 470.2 337.3 L 513.1 337.3 L 513.1 348.3 L 470.2 348.3 Z M 470.2 337.3 "></path></clipPath><g clip-path="url(#clip0x6000014ac360)"><text xml:space="preserve" font-family="Helvetica-Bold,Helvetica" font-weight="bold" font-size="11.0" fill="#094585" transform="matrix(1.00, 0.00, -0.00, -1.00, 472.9, 337.8)">L</text><text xml:space="preserve" font-family="Helvetica-Bold,Helvetica" font-weight="bold" font-size="11.0" fill="#094585" transform="matrix(1.00, 0.00, -0.00, -1.00, 479.6, 337.8)">i</text><text xml:space="preserve" font-family="Helvetica-Bold,Helvetica" font-weight="bold" font-size="11.0" fill="#094585" transform="matrix(1.00, 0.00, -0.00, -1.00, 482.7, 337.8)">a</text><text xml:space="preserve" font-family="Helvetica-Bold,Helvetica" font-weight="bold" font-size="11.0" fill="#094585" transform="matrix(1.00, 0.00, -0.00, -1.00, 488.8, 337.8)">t</text><text xml:space="preserve" font-family="Helvetica-Bold,Helvetica" font-weight="bold" font-size="11.0" fill="#094585" transform="matrix(1.00, 0.00, -0.00, -1.00, 492.5, 337.8)"> </text><text xml:space="preserve" font-family="Helvetica-Bold,Helvetica" font-weight="bold" font-size="11.0" fill="#094585" transform="matrix(1.00, 0.00, -0.00, -1.00, 495.5, 337.8)">L</text><text xml:space="preserve" font-family="Helvetica-Bold,Helvetica" font-weight="bold" font-size="11.0" fill="#094585" transform="matrix(1.00, 0.00, -0.00, -1.00, 502.2, 337.8)">.</text></g></g></g></svg>